<svg xmlns="http://www.w3.org/2000/svg" xmlns:xlink="http://www.w3.org/1999/xlink"><defs>
    <circle id="a" cx="294.77" cy="382.081" r="35.806" transform="rotate(-13.079 294.742 382.05)"/>
  
    <path id="c" d="M231.153 342.281c-22.266.001-35.641-19.753-40.393-37.125l-.161-.609a6.534 6.534 0 0 1 4.682-7.969 6.538 6.538 0 0 1 7.969 4.681l.119.453c3.617 13.221 13.446 28.331 29.213 27.459 6.288-.354 11.352-2.826 15.48-7.555 8.652-9.912 12.519-31.49 11.656-42.367a5.227 5.227 0 0 1 4.798-5.625 5.216 5.216 0 0 1 5.625 4.797c.962 12.105-.317 38.141-12.232 51.79-6.473 7.415-14.746 11.455-24.592 12.01-.731.04-1.453.06-2.164.06z"/>
  
    <path id="e" d="M216.208 216.681s-9.705 28.12-4.479 50.018 24.387 29.115 24.387 29.115-14.184 4.977-10.949 12.691c3.235 7.714 15.428 2.737 19.41.249 3.981-2.488 8.958-9.954 9.705-14.931.746-4.977.498-7.714.498-7.714s16.175-1.742 27.124-10.7c0 0 9.705 7.714 16.673 6.221 6.968-1.493 16.921-13.935 15.926-25.133-.995-11.198-7.465-11.198-11.447-9.456-3.982 1.742-5.475 3.484-5.475 3.484s5.724-6.968 0-16.673c-5.723-9.705-15.926-10.452-15.926-10.452s-2.986-15.926-11.945-21.898c-8.958-5.973-40.811-12.194-53.502 15.179z"/>
  
    <path id="g" d="M196.052 202.496s-10.452 14.682-11.945 29.613c-1.493 14.931.249 24.885 4.728 28.617 4.479 3.733 8.958 2.24 11.447-1.244 2.489-3.484-1.493-15.677-1.493-15.677s4.231-11.696 10.701-19.908c6.47-8.212 7.714-9.456 7.714-9.456s-11.199-12.691-21.152-11.945z"/>
  
    <path id="i" d="M277.901 195.249s11.841 13.586 14.792 28.298c2.95 14.712 2.193 24.789-1.898 28.943s-8.695 3.107-11.514-.116c-2.818-3.223-.052-15.748-.052-15.748s-5.357-11.224-12.601-18.762c-7.244-7.538-8.605-8.654-8.605-8.654s9.899-13.728 19.878-13.961z"/>
  
    <path id="k" d="M195.072 189.797s-3.079 10.394-1.925 14.628c1.155 4.234 6.544.385 11.933 5.004s10.385 12.929 30.787 14.468c20.402 1.54 32.729-9.464 36.964-15.623 4.234-6.159 3.849-13.473 11.163-13.858 7.314-.385 1.155-14.628-1.155-16.938 0 0 14.243-21.172 14.243-26.561 0-5.389-13.473-4.234-30.026.77 0 0-12.318-6.544-34.645-2.695-22.327 3.849-28.871 10.394-28.871 10.394s-27.716 3.464-29.641 6.929c-1.924 3.464 3.85 18.092 21.173 23.482z"/>
  
<clipPath id="clip0_1_11">
<rect width="128" height="128" fill="white"/>
</clipPath>
</defs><symbol id="404" viewBox="0 0 500 500">
  <path fill="#c6ff00" d="M41.058 263.177s2.344 72.677 63.013 121.118c60.669 48.44 144.737 51.91 212.794 56.511 68.057 4.602 120.331-33.926 128.21-92.165 7.878-58.239-44.126-75.335-72.341-141.63-28.215-66.295-25.705-88.086-85.406-128.86-59.701-40.774-153.093-15.737-202.059 54.115-48.965 69.852-44.211 130.911-44.211 130.911z"/>
  <path fill="#fff" d="M41.058 263.177s2.344 72.677 63.013 121.118c60.669 48.44 144.737 51.91 212.794 56.511 68.057 4.602 120.331-33.926 128.21-92.165 7.878-58.239-44.126-75.335-72.341-141.63-28.215-66.295-25.705-88.086-85.406-128.86-59.701-40.774-153.093-15.737-202.059 54.115-48.965 69.852-44.211 130.911-44.211 130.911z" opacity=".7"/>
  <path fill="none" stroke="#263238" stroke-miterlimit="10" stroke-width="1.113" d="M68.667 380.533H59.49m381.02 0H83.195"/>
  <ellipse cx="306.068" cy="410.546" fill="#263238" rx="30.395" ry="8.359"/>
  <path fill="#fff" stroke="#263238" stroke-miterlimit="10" stroke-width="1.113" d="M149.026 429.539c-31.623 0-36.292-4.572-36.753-8.261-.2-1.598.284-3.022 1.439-4.233 8.522-8.936 57.613-5.157 125.56.076 9.476.73 19.279 1.484 29.33 2.231 68.653 5.101 96.291 4.437 101.974-2.458 1.165-1.414 1.408-3.178.76-5.551-2.715-9.956-39.072-10.033-52.848-9.226a1.193 1.193 0 0 1-1.255-1.116 1.188 1.188 0 0 1 1.116-1.255c5.268-.309 51.568-2.634 55.28 10.974.856 3.139.457 5.653-1.22 7.687-6.413 7.78-32.65 8.615-103.984 3.315-10.053-.747-19.857-1.502-29.336-2.231-64.762-4.988-115.915-8.928-123.657-.804-.656.688-.911 1.418-.801 2.298.294 2.353 5.947 7.632 52.01 5.793 25.728-1.026 51.581-3.828 51.839-3.856a1.188 1.188 0 0 1 .258 2.362c-.259.028-26.182 2.838-51.991 3.867-6.69.266-12.565.388-17.721.388z"/>
  
  <use xlink:href="#a" fill="#fff" overflow="visible"/>
  <clipPath id="b">
    <use xlink:href="#a" overflow="visible"/>
  </clipPath>
  <path fill="#c6ff00" d="M294.77 417.887c19.775 0 35.806-16.031 35.806-35.806a35.643 35.643 0 0 0-6.221-20.169c-.396 15.594-9.02 38.625-53.786 46.552 6.373 5.85 14.869 9.423 24.201 9.423z" clip-path="url(#b)"/>
  <path fill="#fff" d="M294.77 417.887c19.775 0 35.806-16.031 35.806-35.806a35.643 35.643 0 0 0-6.221-20.169c-.396 15.594-9.02 38.625-53.786 46.552 6.373 5.85 14.869 9.423 24.201 9.423z" clip-path="url(#b)" opacity=".3"/>
  <g fill="none" stroke="#263238" stroke-linecap="round" stroke-linejoin="round" stroke-miterlimit="10" stroke-width="1.113" clip-path="url(#b)">
    <path d="M312.394 396.118c-10.518-10.291-22.641-13.505-22.641-13.505s12.123 3.214 22.641 13.505c.632.009 1.251.025 1.896.026 4.965-5.001 8.41-9.835 10.788-14.065-16.772-17.742-33.13-15.93-33.13-15.93s16.357-1.812 33.13 15.93a53.409 53.409 0 0 0 2.324-4.629c-6.936-9.778-18.951-16.412-25.443-17.433l-1.502-.353c-4.342-.683-7.046-.1-7.046-.1s2.704-.584 7.046.1l4.273-11.965a35.672 35.672 0 0 0-6.176-1.184c-2.762 4.466-9.9 18.745-9.9 47.074 0-28.329 7.138-42.608 9.9-47.074a36.457 36.457 0 0 0-3.624-.182c-1.371 0-2.722.084-4.053.234-4.22 6.382-12.289 21.455-12.832 44.075 8.412 2.993 19.616 5.263 34.349 5.476zm8.091-7.286c-14.268-13.902-30-14.634-30-14.634s15.732.732 30 14.634z"/>
    <path d="M278.047 390.642c.543-22.62 8.612-37.694 12.832-44.075a35.645 35.645 0 0 0-9.612 2.467c-4.566 6.655-11.761 19.861-12.35 37.596 2.591 1.397 5.624 2.764 9.13 4.012z"/>
    <path d="M281.267 349.034c-12.315 5.078-21.178 16.81-22.119 30.72 2.185 2.043 5.352 4.495 9.769 6.876.589-17.735 7.784-30.941 12.35-37.596zm46.136 28.417a44.994 44.994 0 0 0 1.966-5.304 35.801 35.801 0 0 0-7.63-13.772l-2.717 9.238 2.717-9.238a36.022 36.022 0 0 0-7.545-6.426l-3.055 11.41 3.055-11.41a35.712 35.712 0 0 0-9.462-4.25l-4.273 11.965c6.49 1.022 16.647 4.881 26.944 17.787z"/>
    <path d="M330.77 383.771c.022-.518.039-1.037.039-1.561 0-3.495-.509-6.869-1.441-10.063a44.816 44.816 0 0 1-1.966 5.304l.033.04-.033-.04c-.632 1.434-.595 1.414-1.52 3.059.054.057-.858 1.513-.804 1.57-.054-.058-.955 1.8-1.009 1.742-2.378 4.229-9.555 12.327-9.439 12.327-.116 0-3.878 3.41-5.936 5.129l.082-.007-.082.007c-3.401 2.841-7.339 5.683-11.885 8.45.086-.016.176-.026.261-.043-.085.017-.175.027-.261.043-3.783 2.303-8.008 4.547-12.689 6.697a35.855 35.855 0 0 0 12.614 1.615c7.246-3.936 18.911-13.084 34.036-34.269z"/>
    <path d="M330.77 383.771c-15.125 21.186-26.79 30.333-34.035 34.271 18.46-.914 33.243-15.78 34.035-34.271zm-63.881 20.804c4.392 5.5 10.363 9.683 17.232 11.851 4.68-2.15 8.906-4.395 12.689-6.697-8.54 1.577-21.895-2.337-29.921-5.154z"/>
    <path d="M296.81 409.729c4.546-2.767 8.484-5.609 11.885-8.45-25.784 2.637-41.694-5.345-48.451-9.889a35.755 35.755 0 0 0 6.644 13.186c8.027 2.816 21.382 6.73 29.922 5.153z"/>
    <path d="M308.695 401.278a81.136 81.136 0 0 0 5.595-5.134c-.645-.001-1.265-.017-1.896-.026.136.133.273.262.408.397-.135-.135-.272-.264-.408-.397-14.733-.213-25.937-2.483-34.347-5.476l-.001.02.001-.02c-12.29-4.257-16.714-8.845-18.899-10.888-.055.812-.093 1.63-.093 2.456 0 3.173.417 6.249 1.19 9.179 6.756 4.545 22.666 12.527 48.45 9.889z"/>
  </g>
  <use xlink:href="#a" fill="none" stroke="#263238" stroke-linecap="round" stroke-linejoin="round" stroke-miterlimit="10" stroke-width="1.113" overflow="visible"/>
  <path fill="#c6ff00" d="M360.731 320.884s-2.448-7.957-9.589-10.813c-4.963-1.985-10.676-1.466-15.817-.571-9.581 1.666-17.942 5.476-27.026 8.732 0 0 3.876-1.428 19.789 6.324 5.861 2.856 12.564 5.071 19.266 4.921 5.385-.12 13.633-1.653 13.377-8.593zm.863-23.375s-.046-8.324-6.057-13.122c-4.178-3.334-9.797-4.487-14.978-5.116-9.654-1.172-18.759.059-28.396.553 0 0 4.124-.248 17.119 11.771 4.786 4.427 10.563 8.484 17.023 10.277 5.19 1.44 13.53 2.355 15.289-4.363zm16.45 30.911s-6.493-5.209-6.515-12.9c-.015-5.345 2.574-10.464 5.301-14.913 5.082-8.292 11.705-14.659 18.082-21.902 0 0-2.757 3.077-1.418 20.727.493 6.501.081 13.548-2.529 19.723-2.098 4.96-6.565 12.062-12.921 9.265zm22.995 12.784s-.917-8.274 4.499-13.734c3.764-3.795 9.212-5.59 14.286-6.814 9.454-2.28 18.64-2.111 28.269-2.735 0 0-4.125.231-15.643 13.672-4.242 4.951-9.511 9.649-15.72 12.176-4.989 2.031-13.167 3.904-15.691-2.565z"/>
  <path fill="#c6ff00" d="M399.532 311.712s-8.247-1.134-12.216-7.721c-2.759-4.578-3.167-10.3-3.113-15.518.101-9.724 2.513-18.59 4.264-28.079 0 0-.785 4.056 9.43 18.512 3.762 5.325 7.029 11.582 7.961 18.221.748 5.333.564 13.721-6.326 14.585zm23.735-14.811s5.931 5.841 13.572 4.965c5.31-.609 10.092-3.778 14.193-7.006 7.641-6.015 13.192-13.337 19.641-20.515 0 0-2.734 3.097-20.42 3.828-6.514.27-13.465 1.501-19.292 4.815-4.683 2.663-11.215 7.928-7.694 13.913z"/>
  <path fill="#c6ff00" d="M416.398 291.127s8.283.832 13.687-4.64c3.756-3.803 5.495-9.27 6.667-14.355 2.183-9.477 1.918-18.66 2.443-28.296 0 0-.189 4.127-13.51 15.782-4.907 4.293-9.55 9.61-12.014 15.845-1.979 5.01-3.768 13.207 2.727 15.664z"/>
  <path fill="none" stroke="#263238" stroke-linecap="round" stroke-linejoin="round" stroke-miterlimit="10" stroke-width="1.113" d="m386.826 371.74-14.295-35.189-16.495-40.687m34.09 69.828 14.295-48.935 15.395-30.24m-24.192 59.931 14.295-8.248m-5.498-21.443-7.148-15.945m16.093.079 17.447-7.776m-55.533 50.034 6.048-24.193m-14.069 5.805-13.972-7.454"/>
  <path fill="#263238" stroke="#263238" stroke-linecap="round" stroke-linejoin="round" stroke-miterlimit="10" stroke-width="1.113" d="M394.163 389.334h-11.924a8.369 8.369 0 0 1-8.223-6.81l-4.234-22.331h36.838l-4.234 22.331a8.369 8.369 0 0 1-8.223 6.81z"/>
  <path fill="#263238" d="M58.663 253.199c0-2.77 1.276-4.807 4.155-4.807 2.933 0 4.21 2.037 4.21 4.807v9.723c0 2.77-1.276 4.807-4.21 4.807-2.879 0-4.155-2.037-4.155-4.807v-9.723zm1.25 9.805c0 2.064.815 3.585 2.906 3.585 2.119 0 2.96-1.521 2.96-3.585v-9.886c0-2.064-.841-3.586-2.96-3.586-2.091 0-2.906 1.521-2.906 3.586v9.886zm9.101-9.805c0-2.77 1.276-4.807 4.155-4.807 2.933 0 4.21 2.037 4.21 4.807v9.723c0 2.77-1.276 4.807-4.21 4.807-2.879 0-4.155-2.037-4.155-4.807v-9.723zm1.249 9.805c0 2.064.815 3.585 2.906 3.585 2.119 0 2.96-1.521 2.96-3.585v-9.886c0-2.064-.841-3.586-2.96-3.586-2.091 0-2.906 1.521-2.906 3.586v9.886zm13.119-14.45c2.933 0 4.074 1.847 4.074 4.617v2.064c0 3.015-1.386 4.509-4.4 4.509h-2.362v7.822h-1.25v-19.012h3.938zm-.326 10.049c2.2 0 3.151-.978 3.151-3.286v-2.227c0-2.064-.705-3.395-2.824-3.395h-2.689v8.909h2.362zm14.289-5.458v.407H96.15v-.489c0-2.01-.76-3.531-2.824-3.531s-2.824 1.494-2.824 3.504c0 4.617 6.872 4.699 6.872 9.941 0 2.743-1.195 4.753-4.102 4.753-2.906 0-4.101-2.01-4.101-4.753v-.978h1.195v1.059c0 2.037.787 3.504 2.879 3.504 2.091 0 2.879-1.467 2.879-3.504 0-4.563-6.872-4.644-6.872-9.94 0-2.852 1.25-4.699 4.048-4.726 2.878-.001 4.045 2.009 4.045 4.753zm3.126 12.031v2.39h-1.223v-2.39h1.223zm3.397 0v2.39h-1.223v-2.39h1.223zm3.395 0v2.39h-1.223v-2.39h1.223zm-44.58 11.04c2.933 0 4.074 1.847 4.074 4.617v2.064c0 3.015-1.385 4.509-4.4 4.509h-2.363v7.822h-1.25v-19.012h3.939zm-.326 10.049c2.2 0 3.15-.978 3.15-3.286v-2.227c0-2.064-.705-3.395-2.824-3.395h-2.689v8.909h2.363zm7.743 4.753-.95 4.21h-1.141l4.155-19.039h1.821l4.236 19.039h-1.25l-.95-4.21H70.1zm.19-1.086h5.541l-2.798-12.303-2.743 12.303zm17.929-9.072v1.412h-1.195v-1.493c0-2.037-.788-3.586-2.879-3.586s-2.879 1.548-2.879 3.586v9.886c0 2.036.788 3.558 2.879 3.558s2.879-1.521 2.879-3.558v-4.101h-2.526v-1.141h3.721v5.16c0 2.743-1.195 4.807-4.102 4.807-2.906 0-4.101-2.064-4.101-4.807v-9.723c0-2.743 1.195-4.807 4.101-4.807 2.907 0 4.102 2.064 4.102 4.807zm8.53 4.156v1.141h-5.188v7.93h6.246v1.141h-7.496v-19.012h7.496v1.141h-6.246v7.659h5.188zm8.448 10.212h-1.14v-19.012h1.63l5.703 16.051v-16.051h1.141v19.012h-1.385l-5.948-16.948v16.948zm9.401-14.368c0-2.77 1.276-4.807 4.155-4.807 2.933 0 4.21 2.037 4.21 4.807v9.723c0 2.77-1.276 4.807-4.21 4.807-2.879 0-4.155-2.037-4.155-4.807v-9.723zm1.249 9.805c0 2.064.815 3.585 2.906 3.585 2.119 0 2.96-1.521 2.96-3.585v-9.886c0-2.064-.841-3.586-2.96-3.586-2.091 0-2.906 1.521-2.906 3.586v9.886zm12.386 4.563v-17.871h-3.856v-1.141h8.989v1.141h-3.884v17.871h-1.249zm17.06-9.75v1.141h-4.915v8.61h-1.25v-19.012h7.224v1.141h-5.975v8.121h4.916zm2.881-4.618c0-2.77 1.276-4.807 4.155-4.807 2.933 0 4.21 2.037 4.21 4.807v9.723c0 2.77-1.276 4.807-4.21 4.807-2.879 0-4.155-2.037-4.155-4.807v-9.723zm1.249 9.805c0 2.064.815 3.585 2.906 3.585 2.119 0 2.96-1.521 2.96-3.585v-9.886c0-2.064-.841-3.586-2.96-3.586-2.091 0-2.906 1.521-2.906 3.586v9.886zm10.378-.027c0 2.037.762 3.612 2.853 3.612s2.851-1.575 2.851-3.612v-14.422h1.168v14.368c0 2.716-1.141 4.807-4.047 4.807-2.906 0-4.075-2.092-4.075-4.807v-14.368h1.25v14.422zm10.159 4.59h-1.141v-19.012h1.63l5.703 16.051v-16.051h1.141v19.012h-1.385l-5.948-16.948v16.948zm13.665-19.012c2.934 0 4.21 1.928 4.21 4.726v9.56c0 2.797-1.276 4.726-4.21 4.726h-4.183v-19.012h4.183zm-.028 17.871c2.119 0 2.988-1.439 2.988-3.531v-9.669c0-2.092-.896-3.531-2.988-3.531h-2.906v16.731h2.906z"/>
  
  <use xlink:href="#c" fill="#fff" overflow="visible"/>
  <clipPath id="d">
    <use xlink:href="#c" overflow="visible"/>
  </clipPath>
  <path fill="#c6ff00" d="M264.514 273.623a5.228 5.228 0 0 0-4.798 5.625c.421 5.308-.287 13.165-2.125 20.97 2.259-.11 4.853.141 7.766 1.012-.423 5.341-2.103 13.19-7.632 20.868-9.711 13.488-24.279 17.805-35.609 16.186-5.065-.724-10.881-3.388-15.768-6.113 6.462 6.05 14.718 10.11 24.805 10.11.711 0 1.433-.021 2.162-.061 9.846-.555 18.12-4.595 24.592-12.01 11.915-13.649 13.194-39.685 12.232-51.79a5.215 5.215 0 0 0-5.625-4.797z" clip-path="url(#d)"/>
  <path fill="#fff" d="M264.514 273.623a5.228 5.228 0 0 0-4.798 5.625c.421 5.308-.287 13.165-2.125 20.97 2.259-.11 4.853.141 7.766 1.012-.423 5.341-2.103 13.19-7.632 20.868-9.711 13.488-24.279 17.805-35.609 16.186-5.065-.724-10.881-3.388-15.768-6.113 6.462 6.05 14.718 10.11 24.805 10.11.711 0 1.433-.021 2.162-.061 9.846-.555 18.12-4.595 24.592-12.01 11.915-13.649 13.194-39.685 12.232-51.79a5.215 5.215 0 0 0-5.625-4.797z" clip-path="url(#d)" opacity=".5"/>
  <use xlink:href="#c" fill="none" stroke="#263238" stroke-linecap="round" stroke-linejoin="round" stroke-miterlimit="10" stroke-width="1.113" overflow="visible"/>
  <path fill="#c6ff00" stroke="#263238" stroke-linecap="round" stroke-linejoin="round" stroke-miterlimit="10" stroke-width="1.113" d="M218.311 328.747c.525-2.449-5.336 1.385-10.245 4.952a38.695 38.695 0 0 0 5.843 4.066c1.753-2.844 3.895-6.651 4.402-9.018zm12.842 13.534c.711 0 1.433-.021 2.162-.061a37.614 37.614 0 0 0 6.311-.892c-2.758-3.602-6.554-8.354-7.651-8.719-1.248-.416-3.658 5.715-4.993 9.433a36.42 36.42 0 0 0 4.171.239zm-27.786-40.569-.119-.453a6.536 6.536 0 0 0-12.651 3.288l.161.609c1.578 5.767 4.112 11.794 7.6 17.276l11.91-5.671c-3.204-4.621-5.512-9.973-6.901-15.049zm54.541 28.498a33.396 33.396 0 0 0 2.541-3.341c-3.775-1.291-9.439-3.066-11.541-2.875-2.492.227.889 8.225 2.635 12.01 2.281-1.622 4.406-3.551 6.365-5.794zm.208-21.366c-.396.793 4.494 4.36 7.794 6.648 1.05-3.089 1.879-6.301 2.521-9.522-4.003.796-9.924 2.093-10.315 2.874zm11.935-14.793c.222-2.85.326-5.572.339-8.075-3.438 1.898-7.521 4.514-7.521 6.234 0 1.663 3.821 1.929 7.182 1.841z"/>
  
  <use xlink:href="#e" fill="#fff" overflow="visible"/>
  <clipPath id="f">
    <use xlink:href="#e" overflow="visible"/>
  </clipPath>
  <path fill="#c6ff00" d="M290.143 226.354c-7.051 11.742-21.354 25.246-43.858 27.22-19.803 1.737-30.904-2.163-36.02-4.871.69-16.779 5.944-32.021 5.944-32.021 12.691-27.373 44.543-21.152 53.502-15.18 8.958 5.972 11.945 21.898 11.945 21.898s4.055.302 8.487 2.954zm12.912 20.686c-3.982 1.742-5.475 3.484-5.475 3.484s1.729-2.121 2.333-5.64c-13.451 6.694-12.401 21.018-14.075 21.018-2.055 0-3.082-7.192-3.082-7.192s-2.568 10.274-17.979 17.465-32.876 1.541-32.876 1.541 3.596 8.219-5.651 7.192c-3.124-.347-5.471-1.402-7.229-2.642 7.468 9.913 17.094 13.547 17.094 13.547s-14.184 4.977-10.949 12.691c3.235 7.714 15.428 2.737 19.41.249 3.981-2.488 8.958-9.954 9.705-14.931.746-4.977.498-7.714.498-7.714s16.175-1.742 27.124-10.7c0 0 9.705 7.714 16.673 6.221 6.968-1.493 16.921-13.935 15.926-25.133-.995-11.198-7.465-11.198-11.447-9.456z" clip-path="url(#f)"/>
  <path fill="#fff" d="M290.143 226.354c-7.051 11.742-21.354 25.246-43.858 27.22-19.803 1.737-30.904-2.163-36.02-4.871.69-16.779 5.944-32.021 5.944-32.021 12.691-27.373 44.543-21.152 53.502-15.18 8.958 5.972 11.945 21.898 11.945 21.898s4.055.302 8.487 2.954zm12.912 20.686c-3.982 1.742-5.475 3.484-5.475 3.484s1.729-2.121 2.333-5.64c-13.451 6.694-12.401 21.018-14.075 21.018-2.055 0-3.082-7.192-3.082-7.192s-2.568 10.274-17.979 17.465-32.876 1.541-32.876 1.541 3.596 8.219-5.651 7.192c-3.124-.347-5.471-1.402-7.229-2.642 7.468 9.913 17.094 13.547 17.094 13.547s-14.184 4.977-10.949 12.691c3.235 7.714 15.428 2.737 19.41.249 3.981-2.488 8.958-9.954 9.705-14.931.746-4.977.498-7.714.498-7.714s16.175-1.742 27.124-10.7c0 0 9.705 7.714 16.673 6.221 6.968-1.493 16.921-13.935 15.926-25.133-.995-11.198-7.465-11.198-11.447-9.456z" clip-path="url(#f)" opacity=".5"/>
  <path fill="none" stroke="#263238" stroke-linecap="round" stroke-linejoin="round" stroke-miterlimit="10" stroke-width="1.113" d="M254.779 286.109s-16.565 1.348-28.15-12.911" clip-path="url(#f)"/>
  <use xlink:href="#e" fill="none" stroke="#263238" stroke-linecap="round" stroke-linejoin="round" stroke-miterlimit="10" stroke-width="1.113" overflow="visible"/>
  <path fill="none" stroke="#263238" stroke-linecap="round" stroke-linejoin="round" stroke-miterlimit="10" stroke-width="1.113" d="M297.581 250.524s-5.226 3.484-7.714 14.184"/>
  <g fill="#fff" stroke="#263238" stroke-linecap="round" stroke-linejoin="round" stroke-miterlimit="10" stroke-width="1.113">
    <path d="M307.172 255.1c-.615 1.823-2.28 2.908-3.719 2.422-1.439-.485-2.107-2.357-1.492-4.18.615-1.823 2.28-2.908 3.719-2.422 1.439.485 2.108 2.356 1.492 4.18zm5.148 3.238c-.615 1.823-2.28 2.908-3.719 2.422-1.439-.485-2.107-2.357-1.492-4.18.615-1.823 2.28-2.908 3.719-2.422s2.107 2.357 1.492 4.18z"/>
    <path d="M313.417 263.187c-.447 1.324-1.656 2.112-2.701 1.759-1.045-.353-1.53-1.712-1.084-3.036.447-1.324 1.656-2.112 2.701-1.759 1.046.353 1.531 1.712 1.084 3.036zm-6.568 6.662c-1.798 3.246-5.4 4.69-8.044 3.225-2.645-1.465-3.332-5.284-1.534-8.53 1.798-3.246 5.4-4.69 8.045-3.225 2.644 1.465 3.331 5.284 1.533 8.53z"/>
  </g>
  <path fill="none" stroke="#263238" stroke-linecap="round" stroke-linejoin="round" stroke-miterlimit="10" stroke-width="1.113" d="M236.116 295.814s4.479 2.488 10.7.746m-21.649 11.945s.995-4.23 7.216-7.217m-.995 10.95s2.488-5.972 6.719-8.71"/>
  <path fill="#263238" d="M133.257 243.395c-2.146-1.716-3.219-4.076-3.219-7.081v-23.713H68.88c-3.291 0-5.955-1.108-7.993-3.326-2.039-2.216-3.058-4.828-3.058-7.832 0-2.36.679-4.577 2.039-6.652l58.582-92.058c4.362-6.795 10.193-10.193 17.489-10.193 4.292 0 7.868 1.253 10.729 3.756 2.86 2.505 4.292 6.223 4.292 11.159v89.483h15.558c2.503 0 4.434.77 5.794 2.307 1.358 1.539 2.038 3.38 2.038 5.526s-.68 3.989-2.038 5.526c-1.36 1.539-3.291 2.307-5.794 2.307h-15.664v23.713c0 3.004-1.038 5.364-3.112 7.081-2.076 1.717-4.471 2.575-7.189 2.575-2.72-.003-5.151-.861-7.296-2.578zm-3.219-46.458v-82.402l-51.286 82.402h51.286zm88.088 46.941c-6.367-2.896-11.534-6.759-15.504-11.588-3.97-4.828-7.226-10.711-9.764-17.65a102.412 102.412 0 0 1-5.311-21.351c-1.003-7.296-1.502-15.271-1.502-23.927 0-52.717 17.988-79.075 53.969-79.075 35.907 0 53.862 26.359 53.862 79.075 0 8.584-.483 16.523-1.448 23.82a100.33 100.33 0 0 1-5.258 21.351c-2.54 6.939-5.794 12.822-9.764 17.65-3.97 4.828-9.138 8.709-15.504 11.641-6.367 2.932-13.663 4.399-21.888 4.399-8.226 0-15.522-1.448-21.888-4.345zm32.564-15.129c3.183-1.395 5.864-3.218 8.047-5.472 2.181-2.253 4.077-5.06 5.687-8.423a59.836 59.836 0 0 0 3.809-10.193c.928-3.433 1.663-7.313 2.199-11.641.536-4.327.894-8.296 1.073-11.909.177-3.611.268-7.527.268-11.749 0-4.434-.091-8.53-.268-12.285-.18-3.755-.555-7.795-1.127-12.124-.573-4.327-1.325-8.208-2.253-11.641a56.661 56.661 0 0 0-3.808-10.085c-1.609-3.29-3.505-6.044-5.687-8.262-2.183-2.216-4.847-3.986-7.994-5.311-3.148-1.323-6.688-1.985-10.622-1.985-3.935 0-7.475.662-10.622 1.985-3.148 1.325-5.794 3.076-7.939 5.257-2.147 2.183-4.043 4.919-5.687 8.209a51.541 51.541 0 0 0-3.81 10.085c-.895 3.433-1.628 7.333-2.199 11.695-.573 4.364-.949 8.423-1.127 12.178-.18 3.756-.268 7.851-.268 12.285 0 4.221.088 8.154.268 11.802.178 3.648.536 7.636 1.073 11.963.536 4.329 1.268 8.208 2.199 11.641a59.688 59.688 0 0 0 3.809 10.193c1.61 3.363 3.487 6.152 5.632 8.368 2.146 2.218 4.81 4.024 7.994 5.418 3.182 1.395 6.741 2.093 10.675 2.093 3.936.001 7.495-.696 10.678-2.092zm135.888 14.646c-2.146-1.716-3.219-4.076-3.219-7.081v-23.713h-61.157c-3.292 0-5.955-1.108-7.994-3.326-2.039-2.216-3.058-4.828-3.058-7.832 0-2.36.679-4.577 2.038-6.652l58.583-92.058c4.362-6.795 10.193-10.193 17.489-10.193 4.291 0 7.867 1.253 10.729 3.756 2.86 2.505 4.292 6.223 4.292 11.159v89.483h15.557c2.503 0 4.435.77 5.794 2.307 1.359 1.539 2.039 3.38 2.039 5.526s-.68 3.989-2.039 5.526c-1.359 1.539-3.291 2.307-5.794 2.307h-15.665v23.713c0 3.004-1.037 5.364-3.111 7.081-2.076 1.717-4.471 2.575-7.189 2.575-2.718-.003-5.149-.861-7.295-2.578zm-3.219-46.458v-82.402l-51.287 82.402h51.287z"/>
  
  <use xlink:href="#g" fill="#fff" overflow="visible"/>
  <clipPath id="h">
    <use xlink:href="#g" overflow="visible"/>
  </clipPath>
  <path fill="#c6ff00" d="M196.052 202.496s-3.05 4.289-6.09 10.583c4.995 2.015 12.75 6.105 17.668 13.356a47.827 47.827 0 0 1 1.86-2.538c6.47-8.212 7.714-9.456 7.714-9.456s-11.199-12.691-21.152-11.945z" clip-path="url(#h)"/>
  <path fill="#fff" d="M196.052 202.496s-3.05 4.289-6.09 10.583c4.995 2.015 12.75 6.105 17.668 13.356a47.827 47.827 0 0 1 1.86-2.538c6.47-8.212 7.714-9.456 7.714-9.456s-11.199-12.691-21.152-11.945z" clip-path="url(#h)" opacity=".5"/>
  <use xlink:href="#g" fill="none" stroke="#263238" stroke-linecap="round" stroke-linejoin="round" stroke-miterlimit="10" stroke-width="1.113" overflow="visible"/>
  <path fill="none" stroke="#263238" stroke-linecap="round" stroke-linejoin="round" stroke-miterlimit="10" stroke-width="1.113" d="M188.835 260.727s-1.742-3.982-1.742-10.203m8.461 11.696s-2.488-4.23-2.737-11.447"/>
  <path fill="#c6ff00" stroke="#263238" stroke-linecap="round" stroke-linejoin="round" stroke-miterlimit="10" stroke-width="1.113" d="M199.287 229.123c0-2.624-4.998-7.744-11.951-9.96-.9 2.374-1.704 4.887-2.304 7.465 1.875.357 5.235 1.136 7.785 2.496 3.732 1.99 6.47 2.985 6.47-.001zm-3.843-25.732a83.643 83.643 0 0 0-4.416 7.556 24.155 24.155 0 0 1 6.019 2.499c7.714 4.479 9.207 4.977 6.719-1.493-1.55-4.029-5.124-6.802-8.322-8.562z"/>
  
  <use xlink:href="#i" fill="#fff" overflow="visible"/>
  <clipPath id="j">
    <use xlink:href="#i" overflow="visible"/>
  </clipPath>
  <path fill="#c6ff00" d="M277.901 195.248c-9.979.233-19.878 13.962-19.878 13.962s1.36 1.116 8.604 8.654a52.81 52.81 0 0 1 3.826 4.497c2.534-4.227 7.521-10.883 15.662-15.297-4.019-7-8.214-11.816-8.214-11.816z" clip-path="url(#j)"/>
  <path fill="#fff" d="M277.901 195.248c-9.979.233-19.878 13.962-19.878 13.962s1.36 1.116 8.604 8.654a52.81 52.81 0 0 1 3.826 4.497c2.534-4.227 7.521-10.883 15.662-15.297-4.019-7-8.214-11.816-8.214-11.816z" clip-path="url(#j)" opacity=".5"/>
  <use xlink:href="#i" fill="none" stroke="#263238" stroke-linecap="round" stroke-linejoin="round" stroke-miterlimit="10" stroke-width="1.113" overflow="visible"/>
  <path fill="none" stroke="#263238" stroke-linecap="round" stroke-linejoin="round" stroke-miterlimit="10" stroke-width="1.113" d="M290.794 252.49s1.343-4.133.733-10.324m-7.273 12.469s2.062-4.454 1.601-11.66"/>
  <path fill="#c6ff00" stroke="#263238" stroke-linecap="round" stroke-linejoin="round" stroke-miterlimit="10" stroke-width="1.113" d="M277.293 222.064c-.257-2.612 4.214-8.197 10.916-11.085 1.129 2.274 2.176 4.696 3.025 7.203-1.831.54-5.098 1.644-7.502 3.247-3.52 2.348-6.146 3.607-6.439.635zm1.3-25.985a83.52 83.52 0 0 1 5.135 7.087 24.161 24.161 0 0 0-5.745 3.077c-7.238 5.214-8.675 5.856-6.833-.827 1.148-4.161 4.433-7.271 7.443-9.337z"/>
  
  <use xlink:href="#k" fill="#fff" overflow="visible"/>
  <clipPath id="l">
    <use xlink:href="#k" overflow="visible"/>
  </clipPath>
  <path fill="#c6ff00" d="M283.994 194.416c7.314-.385 1.155-14.628-1.155-16.938 0 0 2.709-4.027 5.763-9.014-8.277-4.324-16.397-6.724-18.558-4.293-4.642 5.223-2.114 15.222 0 24.947s-6.343 13.954-12.262 22.41c-5.92 8.457-14.377-.846-14.377-.846-2.96 12.262-15.645 4.228-15.645 4.228-9.725-2.96-26.216-12.685-22.833-19.451 3.383-6.765 4.228-13.108-1.691-18.605-5.92-5.497-29.53-10.055-29.53-10.055-1.236 4.166 4.75 17.827 21.364 22.996 0 0-3.08 10.393-1.925 14.628 1.155 4.234 6.544.385 11.933 5.004s10.385 12.929 30.787 14.468c20.402 1.54 32.729-9.464 36.964-15.623 4.236-6.157 3.851-13.471 11.165-13.856z" clip-path="url(#l)"/>
  <path fill="#fff" d="M283.994 194.416c7.314-.385 1.155-14.628-1.155-16.938 0 0 2.709-4.027 5.763-9.014-8.277-4.324-16.397-6.724-18.558-4.293-4.642 5.223-2.114 15.222 0 24.947s-6.343 13.954-12.262 22.41c-5.92 8.457-14.377-.846-14.377-.846-2.96 12.262-15.645 4.228-15.645 4.228-9.725-2.96-26.216-12.685-22.833-19.451 3.383-6.765 4.228-13.108-1.691-18.605-5.92-5.497-29.53-10.055-29.53-10.055-1.236 4.166 4.75 17.827 21.364 22.996 0 0-3.08 10.393-1.925 14.628 1.155 4.234 6.544.385 11.933 5.004s10.385 12.929 30.787 14.468c20.402 1.54 32.729-9.464 36.964-15.623 4.236-6.157 3.851-13.471 11.165-13.856z" clip-path="url(#l)" opacity=".5"/>
  <path fill="#c6ff00" d="M253.893 196.745c.283 2.436-5.129 5.066-12.088 5.875-6.959.809-12.83-.509-13.113-2.945-.283-2.436 5.129-5.066 12.087-5.875 6.96-.81 12.83.509 13.114 2.945z" clip-path="url(#l)"/>
  <path fill="#fff" d="M253.893 196.745c.283 2.436-5.129 5.066-12.088 5.875-6.959.809-12.83-.509-13.113-2.945-.283-2.436 5.129-5.066 12.087-5.875 6.96-.81 12.83.509 13.114 2.945z" clip-path="url(#l)" opacity=".5"/>
  <use xlink:href="#k" fill="none" stroke="#263238" stroke-miterlimit="10" stroke-width="1.113" overflow="visible"/>
  <path fill="#c6ff00" stroke="#263238" stroke-miterlimit="10" stroke-width="1.113" d="M274.687 158.948c-9.954 6.719-6.47 13.438-1.991 17.17 2.735 2.279 7.133 1.959 10.148 1.365l-.005-.005s14.243-21.172 14.243-26.561c.001 0-12.441 1.313-22.395 8.031zm-100.98 7.853c-1.236 4.166 4.75 17.827 21.364 22.996 0 0 12.676-1.236 8.445-11.438-3.946-9.519-23.915-11.889-29.809-11.558zm58.704-17.809c-1.315.227-2.571.464-3.779.707 1.991 10.098 5.29 26.917 8.23 26.917 3.045 0 5.187-18.436 6.149-28.768a82.413 82.413 0 0 0-10.6 1.144zm-11.475 24.638c3.062-1.801 2.604-15.329 2.117-22.668-3.717.943-6.79 1.941-9.317 2.908 1.119 6.872 3.937 21.68 7.2 19.76zm29.613-6.221c3.136 1.098 4.888-10.151 5.88-18.813-2.699-.444-5.892-.767-9.561-.809-.096 7.117.294 18.437 3.681 19.622z"/>
  <path fill="#c6ff00" stroke="#263238" stroke-linecap="round" stroke-linejoin="round" stroke-miterlimit="10" stroke-width="1.113" d="M246.361 206.355c-1.693-.411-5.323-.921-8.674 1.063a.867.867 0 0 0-.16 1.375l5.318 4.985a.855.855 0 0 0 1.363-.27l2.717-5.971a.85.85 0 0 0-.564-1.182z"/>
  <path fill="#263238" d="M233.737 198.01c.734 1.926.445 3.825-.647 4.241-1.092.416-2.572-.808-3.306-2.734s-.445-3.825.647-4.241c1.092-.416 2.572.808 3.306 2.734zm14.484-1.378c-.38 2.026.243 3.843 1.391 4.058 1.148.215 2.387-1.253 2.767-3.279.38-2.026-.243-3.843-1.392-4.058-1.148-.215-2.386 1.253-2.766 3.279z"/>
  <path fill="none" stroke="#263238" stroke-linecap="round" stroke-linejoin="round" stroke-miterlimit="10" stroke-width="1.113" d="M244.208 213.508s-7.097 9.643-13.567-.063"/>
  <path fill="none" stroke="#263238" stroke-linecap="round" stroke-linejoin="round" stroke-miterlimit="10" stroke-width="1.113" d="M242.845 213.778s4.718 4.894 9.695 2.156c4.977-2.737 1.991-6.968 1.991-6.968"/>
  <path fill="none" stroke="#263238" stroke-linecap="round" stroke-linejoin="round" stroke-miterlimit="10" stroke-width="3.34" d="M221.185 190.303s1.742-6.221 9.954-4.728m14.931-.995s6.221-3.733 11.945 2.24"/>
  <path fill="none" stroke="#263238" stroke-linecap="round" stroke-miterlimit="10" stroke-width="1.113" d="m216.457 206.976 5.972 1.493m-.746 2.239-5.226.996m6.221 1.742-3.733 1.99m41.558-11.198 5.225-1.244m-4.23 3.733h3.484m-2.737 2.488 4.728 1.245"/>
</symbol><symbol id="angelavladi-logo" viewBox="0 0 482 255">
	<g id="Group 3">
		<g id="Group 4">
			<path id="Object 5" fill="#ff2e17" d="m32 111.2q0 1.5-0.6 2.5-0.6 1-1.5 1.8-0.9 0.8-1.6 1.7-0.6 0.9-0.6 2.4 0-1-0.5-1.5-0.5-0.5-1.3-0.3-0.8 0.3-2.3 1.8 0 1.3 0.5 2.3 1 2.1 3.6 2.1h-4.1v-8.5q-1.5 0-2.6-0.6-1-0.7-1.7-1.6-0.8-0.9-1.7-1.5-0.9-0.6-2.4-0.6 0.3-1.3 0.6-2.6 0.3 0.2 0.6 0.3 1.3 0.2 2.9-0.3 1.7-0.5 4.3-1.5-1.5 0-2.6-0.5-1-0.6-1.7-0.9-0.8-0.4-1.7-0.3-0.4 0.1-0.8 0.3 1-2.9 2.2-5.4 2.3-4.7 5-9 2.7-4.2 5.6-8.3 2.9-4.1 6-8.7 0-1.5-1.1-2.4-1.2-0.9-2.3-1.7-1.2-0.7-1.4-1.7-0.3-1.1 1.2-2.6l3.6 4.3v-4.3h-3.6l3.6-4.1q-2 0-3.3-0.5-1.3-0.5-1.7-1.2-0.4-0.6 1.4-2.1h3.6l4.4-4.1q-1.1 0-1.6-0.5-0.5-0.5-0.4-1.3 0.2-0.8 2-2.6h-4.4q1.6-1.5 1.3-2.4-0.3-0.9-1-1.7-0.8-0.7-1.2-1.8-0.4-1 0.9-2.5 0-1.3 1.3-1.5 1.3-0.3 2.4-0.3 1.2 0 1.7-0.3 0.5-0.2-1-1.5h12.5q0 1.3-0.6 1.5-0.7 0.3-1.4 0.3-0.8 0-1.5 0.3-0.6 0.2-0.6 1.5h4.1v-7.9q2.8 0 4.9-2.6 2-2.6-1.1-5.9 3.1-1.5 5.5-4.3 2.5-2.8 4.4-6.3 1.9-3.4 3.6-7.2 1.6-3.7 3.2-6.7 6.1 6.1 9.7 14.3 3.6 8.2 6.6 14.6v-4.4q3.4 0 3.9 2.7 0.5 2.7 0.5 5.8v-4.1q2.5 0 1.5 2-0.5 1-1.5 2.1 0 1.5 1.1 3.7 1.2 2.1 2.3 4.1 1.2 1.9 1.7 3.2 0.5 1.2-1 1.2 0 1.6 0 1.8 0 0.3 0.3-0.1 0.4-0.4 1.2-1 0.8-0.7 2.3-0.7 1.5 7.7 5.6 15.4 4.1 7.7 8.9 14.9 4.7 7.3 8.8 14.4 4.1 7 5.6 13.1 9.7 12.3 15.7 24.6 6 12.3 9.1 24.5-1.5 0-3.1 1.3-1.5 1.3-3 3-1.6 1.6-3.1 2.9-1.5 1.3-2.8 1.3-1.5-3.1-3.7-5.5-2.2-2.4-3.7-4.8-1.6-2.3-2.1-4.7-0.5-2.4 1-5.5-2.8 0-3.8 2.1-0.5 1-0.5 2-6.4-15.3-14.4-28.9-8.1-13.5-14.5-28.9-4.6 0-9.1-0.5-4.5-0.5-8.3-0.5-3.8 0-6.8 1-2.9 1-4.4 4.1-1.6-1.5-1.8-2.3-0.1-0.1-0.1-0.3-0.3 0.2-0.6 0.3-0.9 0.3-1.6-0.1-0.8-0.4-1.7-1-0.9-0.7-2.4-0.7v4.1q-1.6 0-2.6-0.6-1-0.7-1.8-1.4-0.7-0.8-1.6-1.4-0.9-0.7-2.5-0.7 1.1 1 1.6 2.1 1 2-1.6 2 0-3.1-2.4-3.6-2.4-0.5-5.5-0.5-3.3 0-3.8 0.5-0.5 0.5-0.5 3.6 0-1 0.5-1.5 0.5-0.5 1.2-0.3 0.8 0.3 2.6 1.8h-8.4q1.5 3.1 0.5 6.1-1 3.1-3 5.8-1.9 2.7-3.7 4.9-1.8 2.1-1.8 3.7 0-1.1-0.5-1.6-0.5-0.5-1.4-0.2-0.9 0.2-2.4 1.8-1.5 0-1 0.6 0.5 0.6 1.6 1 1.2 0.4 2.5 0.2 1.2-0.3 1.2-1.8zm5.4-69.5q0.3 0.7 0.3 1.6 0 0.9 0.3 1.5 0.4 0.6 2 0.6 0-1-0.5-2-0.6-0.8-1.5-1.5-0.6-0.6-1.4-0.7 0.6 0.1 0.8 0.5zm33.7 46.4q0.8-0.4 1.9-1.5-1.1 0-1.6 0.5-0.4 0.4-0.3 1zm-34.5-46.9q-0.4-0.1-1-0.1 0.5 0 1 0.1zm65-16.5q0 3.3-1.9 3.3-1.9 0-1.9-3.3zm-53.2 16.4q-3.4 0-3.9-0.4-0.5-0.4-0.5-3.2 0 2.8 0.5 5.4 0.5 2.5 3.9 2.5h12q-3.1-1.5-4.2-1.8-1.2-0.2-1.9-0.2-0.8 0-1.8-0.4-1.1-0.4-4.1-1.9zm7.9 41.7v-4.4q-1 1.3-1.5 2.3-1.1 2.1 1.5 2.1zm-32.7 20.4q0-1 0.5-2 1-2.1 3.6-2.1-1.6 0-1.8-0.1-0.3-0.1-0.3-0.5 0-0.4-0.2-1.3-0.3-0.9-1.8-2.4zm8.4 3.8q0-2.8-0.5-3.3-0.5-0.5-3.8-0.5 0 1 0.5 2 0.7 1.8 3.8 1.8zm-15.3-1.3q-0.5 1.4-0.9 2.9-0.7-0.4-0.7-1.6 0.9-0.9 1.6-1.3zm-9.5 18.2q0 0.8 0.5 1.3 0.8 1 3.1-1.3 0-1.5-0.7-2.4-0.6-0.9-1.1-1.4-1-0.5-1.8-0.5l3.6-4.1h8.4v4.1q-3.1 0-3.6-0.5-0.5-0.6-0.5-3.6-1.5 1.5-1.8 3-0.2 1.6 0.2 3.1 0.3 1.5 1 3.1 0.6 1.5 0.6 2.8-1.5 0-1.9 0.1-0.4 0.1-0.4 0.5 0 0.4-0.2 1.3-0.3 0.9-1.8 2.4h-3.6q1.3-1.5 1.5-2.5 0.3-1-0.1-1.8-0.4-0.8-0.9-1.5-0.5-0.8-0.5-2.1zm-4.4 12.4q-0.1-0.2-0.3-0.4 0.2 0 0.3 0zm-1.7-0.4q-0.3 0 0.1-0.3 0.3-0.3 0.7-0.9 0.2 0.7 0.6 1.2-1.2 0-1.4 0zm0.8-1.2q-0.1-0.4-0.1-0.8 0-1.5 0.5-2.6 0.5-1 0.5 0.5 0 1.6-0.6 2.5-0.2 0.2-0.3 0.4zm1.1 1.8q1.1 1 4.2-0.6 0 1.8-0.8 2.6-0.7 0.8-1.5 1.3-1 0.5-2.1 0.5v-4q0.1 0.1 0.2 0.2z"/>
			<path id="Object 6" fill="#2c2e35" d="m183 69.2q0.8 0 0.9-0.8 0.1-0.7 0.1-1.7 0-1 0.2-2.1 0.2-1.1 1-1.9-0.8-5.6-1-11.8-0.2-6.3-0.2-12.8 0-6.6-0.1-13.2-0.1-6.6-0.9-13h8.4q0.8 8.7 0.9 17.8 0.1 9-0.1 17.7-0.2 8.8-0.5 16.9-0.3 8.2-0.3 15.3h-2.1q0 0.8-0.1 1.6-0.1 0.8-0.7 1.4-0.6 0.6-1.9 1-1.3 0.3-3.6 0.3 0.8-0.8 0.9-1.6 0.1-0.8-0.1-1.6-0.2-0.8-0.5-1.6-0.3-0.8-0.3-1.6-0.6 0-1.1 0.3-1.1 0.5-1.1 1.8-3.9-4.7-7.9-10.2-3.9-5.4-7.8-11-4-5.5-8.1-10.9-4-5.4-8-10.1v42.2q-3 0-4.9-1-1.8-1.1-3.4-1.1v-65.6q4.7 6.4 10.2 13.4 5.4 7 11 14.4 5.5 7.3 10.9 14.8 5.4 7.5 10.2 14.7zm4.3 16.9q0-0.8 0.4-0.9 0.3-0.1 0.9-0.1 0.6 0 1.3-0.2 0.7-0.2 1.5-1v2.2q-0.8 0-1.2-0.3-0.5-0.3-0.9-0.5-0.4-0.2-0.8-0.1-0.4 0.1-1.2 0.9zm4.1-2.2h-2.1q0-1.6 0.3-1.6 0.3 0 1.8 1.6zm-38-46.5h-2.1q-0.8 0.7-0.6 1.1 0.2 0.4 0.8 0.4 0.6 0 1.2-0.4 0.7-0.4 0.7-1.1zm-10.6-10.7v2.2h2.1v-2.2zm44.6 42.5q0-1.8-0.3-2-0.3-0.3-1.9-0.3 0 1.5 1.1 2 0.5 0.3 1.1 0.3zm-6.5 4.2q1.5 0 1.5-1 0-1.1-1.5-1.1zm0 2q0.8 0 1.5-0.3 0.8-0.2 1.7-0.4 0.9-0.2 1.7-0.2 0.8 0.1 1.6 0.9 0-1.6-1.4-2.1-1.3-0.4-2.7-0.2-1.4 0.2-2.3 0.8-0.9 0.7-0.1 1.5zm-40.2 4.2q1.6 0 4.2 0.3 2.7 0.3 4.1 1.8v12.8h-8.3z"/>
			<path id="Object 7" fill="#2c2e35" d="m266.7 56.6h8.5v4.2h-8.5zm8.5-33.7q-0.8 1.6-1.6 2.5-0.9 0.9-1.9 1.5-1 0.5-2.2 1-1.2 0.5-2.8 1.3-4.7-4.8-11.2-6.9-6.5-2.1-13.4-1.9-6.9 0.2-13.5 2.7-6.7 2.6-11.6 7.3-5 4.6-7.7 11.2-2.6 6.7-1.5 15h-8.4q0-3.2 0.3-4.8 0.2-1.5 1.8-1.5-1-8.4 2.4-15.5 3.5-7.1 9.7-12.3 6.2-5.1 14.5-8 8.3-3 16.8-3.2 8.5-0.3 16.5 2.5 8 2.8 13.8 9.1zm-69.4 21.1h2l-2-2.1zm0 25.2q-3.2-1.6-3.5-3.4-0.2-1.8 1.3-5 1.6 0 1.9 1.4 0.3 1.3 0.3 2.9 1.4-1.6 2-1.9 0.5-0.2 2.1-0.2-0.8-0.8-1.6-0.6-0.7 0.2-1.3 0.6-0.6 0.4-0.9 0.6-0.3 0.2-0.3-0.6 0-0.8 0.3-1 0.3-0.1 0.7-0.1 0.3 0 0.6-0.1 0.4-0.2 0.4-1 0-0.8-0.7-1.2-0.7-0.4-1.7-0.4-1 0-2 0.4-1.1 0.4-1.9 1.2-0.5-0.5-0.8-1-0.5-1.1 0.8-1.1h8.4q0.8 4.8 2.4 8.4 1.5 3.7 3.9 6.7 2.4 2.9 5.5 5.4 3.2 2.5 7.1 4.8 0 0.8 0 0.9 0 0.1 0.2-0.1 0.2-0.2 0.7-0.5 0.5-0.3 1.3-0.3 3.9 1.6 8.8 2 4.9 0.4 9.9-0.2 5-0.6 9.4-2.1 4.5-1.5 7.6-3.9v-16.8h8.5q-0.8 2.3-0.6 4.7 0.2 2.3 0.6 4.7 0.4 2.4 0.6 4.7 0.2 2.4-0.6 4.8-0.8 2.4-3.3 4.3-2.6 2-6.1 3.5-3.6 1.6-7.7 2.8-4.2 1.2-8.2 2h-10.5q-5.5-0.8-10.8-3-5.3-2.2-9.7-4.9-4.4-2.7-7.4-5.7-3-3-3.7-5.3 0-0.8-0.4-1-0.3-0.1-0.6-0.1-0.4 0-0.7-0.1-0.3-0.2-0.3-1 1.2-1.3 1.7-0.8 0.3 0.3 0.3 0.8 0.7 0 1.2-0.3 0.5-0.3 0.9-0.7 0.4-0.4 0.8-0.8 0.5-0.3 1.3-0.3-0.8-0.8-1.9-1.2-1-0.4-2-0.4-1 0-1.7 0.4-0.6 0.4-0.6 1.2 0-0.8-0.4-0.9-0.3-0.1-0.7-0.1-0.4 0-0.7-0.2-0.4-0.1-0.4-0.9zm6.3 6.4v-2.2h-2.1q0 1.6 0.2 1.9 0.3 0.3 1.9 0.3zm4.2 6.3h-2.1q0 1.6 1.1 1.6 1 0 1-1.6zm14.7 6.3v-2.2h-2.1q0 1.6 0.3 1.9 0.2 0.3 1.8 0.3zm0 2.1q0.8 0 1.3 0.3 0.5 0.3 0.9 0.5 0.3 0.2 0.8 0.1 0.5-0.1 1.3-0.9-1.4 0-1.9-1.1-0.2-0.5-0.2-1-1.6 0-1.9 0.2-0.3 0.3-0.3 1.9z"/>
			<path id="Object 8" fill="#2c2e35" d="m334.4 11.2v6.4h-44.8v29.7q-1.5 0-3.4-1.1-1.8-1.2-5-1.2v-31.8q0-1.2 1.1-1.7 0.5-0.3 1-0.3zm-13.4 37.2q0.8 0 1.6 0 0.8 0 1.7-0.2 0.8-0.1 1.6-0.9 0 0.8-0.7 0.9-0.7 0.2-1.7 0.2-1 0-2.1 0-1.1 0.1-1.9 0.9 3.2 0 6.4 0v6.3h-34q-0.8 3.2-1 7.1-0.2 4-0.2 7.9 0 4-0.2 7.9-0.1 3.8-0.9 7 3.2 0.8 7.4 1 4.1 0.2 8.1 0.2 4 0 7.3 0.1 3.3 0.1 4.9 0.9 1.6-0.8 3.6-0.9 2-0.1 4.2-0.1 2.2 0 4.6-0.2 2.3-0.2 4.7-1v8.5h-38.2q0-0.8 0.3-1 0.3-0.1 0.5-0.1 0.2 0 0.1-0.1-0.1-0.2-0.9-1-1.6 1.6-2.9 1.9-1.4 0.3-2.8 0.1-1.4-0.2-3.1-0.4-1.6-0.2-4 0.6-0.8-4-1.2-9.7-0.4-5.7-0.4-12.1 0-6.3 0.4-12.8 0.4-6.5 1.2-12.1 11.1 1.5 21.2 1.7 7.1 0.2 14.9 0.3 0.7-0.8 1.5-0.9zm-37.6 15.9h4.2q-1.3 0-1.8-1.1-0.3-0.5-0.3-1.2h-2.1zm4.2 2.1v-2.1q-0.5 0.5-0.8 1.1-0.5 1 0.8 1zm-4.2 14.7h2.1v-1.9h-2.1zm23.3 8.6h2.3q0-0.4-0.3-1-0.5-1-2-1z"/>
			<path id="Object 9" fill="#2c2e35" d="m351.5 67.6v17.9q5 0.8 10.8 0.9 5.8 0.1 11.6-0.1 5.8-0.2 11.6-0.5 5.8-0.3 10.8-0.3 1.7 1.7 2 4.5 0.3 2.8 0.3 4.5h-56.1v-26.9zm-2.3-56.1q0.6 0.8 1.1 1.5 0.4 0.6 0.8 1.4 0.4 0.8 0.4 1.6h-6.8q1-0.8 1.5-0.9 0.5 0 0.9 0.2 0.4 0.2 0.9 0.4 0.4 0.3 1.2 0.3zm-4.5 4.5q1 0 1.1 0.7 0.1 0.6 0.1 1.3 0 0.7 0.1 0.9 0.2 0.2 1.1-0.6-0.7 0.8-1.2 1.4-0.5 0.7-0.8 1.5-0.4 0.8-0.4 1.7 1.7 0 2.4-0.4 0.7-0.4 1.1-0.8 0.4-0.4 1-0.8 0.7-0.4 2.3-0.4 0 1.9-0.3 1.9-0.2 0-2-1.9 0.8 1 1.3 2.4 0.5 1.5 0.5 2.9 0 1.5-0.5 2.5-0.5 1.1-1.3 1.1 0.8 1.7 1.3 6 0.5 4.3 0.7 9.8 0.2 5.5 0.2 11.4 0.1 5.9 0.1 11h-9v-40.3q0-1.5 1-2 0.6-0.3 1.2-0.3 0-0.8-0.3-0.6-0.3 0.2-0.8 0.6-0.5 0.4-0.8 0.6-0.3 0.2-0.3-0.6 0-1.7 0.3-1.9 0.3-0.2 0.8 0 0.5 0.2 0.8 0.4 0.3 0.2 0.3-0.6 0-0.7-0.2-1.2-0.3-0.4-0.8-0.8-0.4-0.4-1.2-0.4 1.2 0 2-0.5 0.6-0.4 0.9-1.3 0.3-1-0.7-2.7z"/>
			<path id="Object 10" fill="#2c2e35" d="m417.7 69.3q0 0.8-0.4 1.3-0.3 0.6-0.8 1-0.4 0.4-0.8 0.8-0.3 0.5-0.3 1.3 0-0.6-0.3-0.8-0.2-0.3-0.6-0.2-0.4 0.2-1.2 1 0 0.6 0.3 1.2 0.5 1 1.8 1h-2.1v-4.3q-0.8 0-1.3-0.4-0.6-0.3-1-0.8-0.4-0.4-0.8-0.8-0.5-0.3-1.3-0.3 0.2-0.7 0.4-1.3 0.1 0.1 0.3 0.1 0.6 0.1 1.4-0.1 1-0.3 2.3-0.8-0.8 0-1.3-0.3-0.6-0.2-1-0.4-0.4-0.2-0.8-0.2-0.2 0-0.5 0.2 0.6-1.5 1.2-2.8 1.2-2.5 2.6-4.7 1.4-2.2 2.9-4.3 1.5-2.1 3.1-4.5 0-0.8-0.6-1.2-0.6-0.5-1.2-0.9-0.6-0.4-0.7-0.9-0.1-0.6 0.7-1.4l1.8 2.3v-2.3h-1.8l1.8-2.1q-1 0-1.7-0.3-0.7-0.2-0.9-0.5-0.2-0.4 0.8-1.2h1.8l2.3-2.1q-0.6 0-0.8-0.3-0.3-0.2-0.2-0.6 0-0.4 1-1.3h-2.3q0.8-0.8 0.7-1.3-0.2-0.5-0.6-0.9-0.3-0.4-0.5-0.9-0.2-0.5 0.4-1.3 0-0.7 0.7-0.8 0.6-0.2 1.2-0.2 0.6 0 0.9-0.1 0.3-0.1-0.5-0.8h6.5q0 0.7-0.4 0.8-0.3 0.1-0.7 0.1-0.4 0-0.7 0.2-0.4 0.1-0.4 0.8h2.2v-4.1q1.4 0 2.5-1.4 1-1.3-0.5-3 1.5-0.8 2.8-2.3 1.3-1.4 2.3-3.2 1-1.8 1.8-3.7 0.9-1.9 1.7-3.5 3.2 3.1 5 7.4 1.9 4.2 3.5 7.5v-2.2q1.7 0 1.9 1.4 0.3 1.4 0.3 3v-2.2q1.3 0 0.8 1.1-0.3 0.5-0.8 1.1 0 0.8 0.6 1.9 0.6 1.1 1.2 2.1 0.6 1 0.9 1.7 0.2 0.6-0.6 0.6 0 0.8 0 1 0 0.1 0.2-0.1 0.2-0.2 0.6-0.5 0.4-0.4 1.2-0.4 0.8 4 2.9 8 2.2 4 4.6 7.7 2.5 3.8 4.6 7.5 2.1 3.6 2.9 6.8 5 6.4 8.2 12.7 3.1 6.4 4.7 12.7-0.8 0-1.6 0.7-0.8 0.7-1.6 1.5-0.8 0.9-1.6 1.6-0.8 0.6-1.5 0.6-0.8-1.6-1.9-2.8-1.1-1.3-1.9-2.5-0.8-1.2-1.1-2.4-0.2-1.3 0.6-2.9-1.5 0-2 1.1-0.3 0.5-0.3 1-3.3-7.9-7.5-14.9-4.2-7.1-7.5-15-2.4 0-4.7-0.3-2.3-0.3-4.3-0.3-2 0-3.5 0.6-1.5 0.5-2.3 2.1-0.8-0.8-1-1.2 0-0.1 0-0.1-0.2 0.1-0.3 0.1-0.5 0.1-0.8-0.1-0.4-0.2-0.9-0.5-0.5-0.3-1.3-0.3v2.1q-0.8 0-1.3-0.3-0.5-0.4-0.9-0.8-0.4-0.4-0.9-0.7-0.4-0.3-1.2-0.3 0.5 0.5 0.8 1 0.5 1.1-0.8 1.1 0-1.6-1.3-1.9-1.3-0.2-2.9-0.2-1.7 0-1.9 0.2-0.3 0.3-0.3 1.9 0-0.5 0.3-0.8 0.2-0.3 0.6-0.1 0.4 0.1 1.3 0.9h-4.3q0.8 1.6 0.2 3.2-0.5 1.6-1.5 3-1 1.4-1.9 2.5-0.9 1.1-0.9 1.9 0-0.5-0.3-0.8-0.3-0.3-0.7-0.1-0.5 0.1-1.3 0.9-0.8 0-0.5 0.3 0.2 0.4 0.8 0.6 0.6 0.2 1.3 0 0.7-0.1 0.7-0.9zm2.7-36q0.2 0.3 0.2 0.8 0 0.5 0.2 0.8 0.2 0.3 1 0.3 0-0.5-0.3-1-0.3-0.4-0.7-0.8-0.3-0.3-0.8-0.4 0.4 0.1 0.4 0.3zm17.5 24.1q0.4-0.3 1-0.8-0.6 0-0.8 0.2-0.2 0.3-0.2 0.6zm-17.9-24.4q-0.2 0-0.5 0 0.3 0 0.5 0zm33.7-8.5q0 1.7-1 1.7-1 0-1-1.7zm-27.5 8.5q-1.8 0-2-0.2-0.3-0.2-0.3-1.7 0 1.5 0.3 2.8 0.2 1.3 2 1.3h6.2q-1.6-0.8-2.2-0.9-0.6-0.1-1-0.1-0.4 0-0.9-0.2-0.6-0.2-2.1-1zm4.1 21.6v-2.3q-0.6 0.7-0.8 1.2-0.6 1.1 0.8 1.1zm-17 10.6q0-0.5 0.3-1.1 0.5-1 1.8-1-0.8 0-0.9-0.1-0.1-0.1-0.1-0.3 0-0.2-0.2-0.6-0.1-0.5-0.9-1.3zm4.4 2q0-1.5-0.3-1.7-0.3-0.3-2-0.3 0 0.5 0.3 1.1 0.4 0.9 2 0.9zm-8-0.7q-0.2 0.7-0.4 1.5-0.4-0.2-0.4-0.8 0.5-0.5 0.8-0.7zm-4.9 9.5q0 0.4 0.3 0.6 0.4 0.6 1.6-0.6 0-0.8-0.4-1.3-0.3-0.5-0.6-0.7-0.5-0.3-0.9-0.3l1.9-2.1h4.3v2.1q-1.5 0-1.8-0.3-0.3-0.2-0.3-1.8-0.8 0.8-0.9 1.6-0.1 0.8 0.1 1.6 0.2 0.8 0.5 1.6 0.3 0.8 0.3 1.4-0.8 0-1 0.1-0.2 0-0.2 0.2 0 0.2-0.1 0.7-0.1 0.5-0.9 1.3h-1.9q0.7-0.8 0.8-1.4 0.1-0.5-0.1-0.9-0.2-0.4-0.4-0.8-0.3-0.4-0.3-1zm-2.2 6.4q-0.1-0.1-0.2-0.2 0.1 0 0.2 0zm-1-0.2q-0.1 0 0.1-0.2 0.1-0.2 0.4-0.5 0.1 0.4 0.3 0.7-0.7 0-0.8 0zm0.5-0.7q-0.1-0.2-0.1-0.4 0-0.8 0.3-1.3 0.3-0.5 0.3 0.3 0 0.8-0.4 1.2-0.1 0.1-0.1 0.2zm0.5 0.9q0.6 0.6 2.2-0.2 0 0.9-0.4 1.3-0.4 0.4-0.8 0.7-0.5 0.2-1 0.2v-2q0 0 0 0z"/>
		</g>
		<g id="Group 12">
			<path id="Object 13" fill="#ff2e17" d="m216.7 123.3q-1.6 0-2.2 0.7-0.6 0.6-1.1 1.4-0.6 1-0.6 2 2.9 0 3.9-2 0.4-0.8 1-1.3-0.4-0.3-0.6-0.8-0.4-0.7-0.4-1.1 0-0.4 0 1.1zm3.2 4.9q-0.7 1.8-1.8 3.3-1.2 1.6-2.4 3.3-1.3 1.8-2.9 4.9h-3.8q0.8 0 1.8 0.5 2 1 2 3.6-1.5-1.5-2.1-1.8-0.7-0.3-1.2 0.3-0.5 0.5-0.5 1.5v4.1q0 1.5-0.6 1.8-0.7 0.2-1.3 0.2-0.6 0-1.3 0.3-0.6 0.2-0.6 1.8 0 3-0.5 5.6-0.5 2.6-3.4 2.6-2.5 2.5-1.5 3.5 0.5 0.6 1.5 0.6h-7.6q1.5 1.5 1.6 3 0.2 1.6-0.2 3.5-0.4 1.9-0.9 4.2-0.5 2.3-0.5 5.4h-4.1q0 3-2.5 8.1-2.4 5.2-5.2 8.2-1.5 0-1.7 0.7-0.1 0.6 0.3 1 0.4 0.4 0.9 0.1 0.5-0.2 0.5-1.8v8.2h-3.8q1.5 3.1-0.8 4.7-2.3 1.7-5.9 2.5-3.6 0.7-7.3 0.9-3.7 0.1-5.2 0.1 1.5-1.5 2.4-4.9 0.9-3.3 1.9-6.7 1.1-3.5 2.7-6.2 1.7-2.7 4.5-2.7-1.5-1.5-1.7-2.4-0.1-0.9 0.3-1.7 0.4-0.7 0.9-1.6 0.5-0.9 0.5-2.4h3.8q-2.8-3.1-0.5-6.2 2.3-3.1 8.2-6.1-1.5-1.6-1-3.6 0.5-2 1.5-4.3 1-2.4 2.2-4.5 1.1-2.2 1.1-3.7h3.9q0-1.6-0.5-1.8-0.5-0.3-0.9-0.3-0.4 0-0.3-0.2 0.1-0.3 1.7-1.8 3-6.2 6.5-13.6 3.4-7.4 7.2-15.1 3.7-7.6 7.1-15.1 3.5-7.4 6.3-13.5 2.3 0 3.3 2 0.5 1.1 0.5 2.1 1.6-1.6 3-1 1.4 0.5 2.8 1.6 1.4 1.2 2.8 2.3 1.4 1.2 2.9 1.2-2.8 6.1-5.2 10.2-2.4 4.1-2.4 10.2-1.6 0-2.2-0.6-0.7-0.6-1.2-1.4-0.5-1-0.5-2.1-2.8 0-2.8 2.1 0 2 2.8 2 0 3.1-0.6 4.9zm0.6-4.9q-1.7 0-2.8 0.8 0.2 0.2 0.5 0.4 0.8 0.4 2.3-1.2zm-3.8-20.4q1.5 0 2.8 0.6 1.3 0.7 2 1 0.8 0.4 0.7 0.2-0.1-0.3-1.7-1.8zm-11.5 45q0-3.1-0.5-3.6-0.5-0.5-3.3-0.5 0 2.8 1.8 3.6 1 0.5 2 0.5zm-11.5 8.2q2.8 0 5.2-0.5 2.5-0.6 2.5-3.6 0-1.6-0.7-1.8-0.6-0.3-1.2-0.3-0.7 0-1.3-0.2-0.7-0.3-0.7-1.8 0 3.1-1.9 4.1-1.9 1-1.9 4.1zm3.8 4.1v-4.1h-3.8q0 1 0.5 2 0.5 0.8 1.2 1.4 0.6 0.7 2.1 0.7zm-7.9 12h4.1q0-2.8-0.5-3.3-0.5-0.6-3.6-0.6zm-15.3 16.4v4.1q2.8 0 3.8-2 1-2.1 3.8-2.1-1.5-1.5-2.8-1.8-1.3-0.2-2.5 0.3-1.3 0.5-2.3 1.5zm-3.9 32.7q-1 0-2-0.5-1.8-0.7-1.8-3.5h7.7q-1.6 4.6-4.1 9.2-2.6 4.6-5.5 9.2-3 4.6-5.5 9.2-2.6 4.6-4.1 9.2-2.8 0-4.6-2.6-1.8-2.5 1-5.6-5.9-6.1-9.2-12.3-3.3-6.1-6.1-12.3 5.6-1.5 9-2.3 3.5-0.7 6.3-1.1 2.8-0.4 6.1-0.5 3.4-0.1 9-0.1-1.5 0-1.2 0.7 0.4 0.8 0.8 1.9 0.4 1.2-0.1 2.6-0.5 1.4-3.3 2.9 2.8 0 3.8-2 1-2.1 3.8-2.1zm-7.6 12.3v-4.1q-2.9 0-2.9 2.1 0 2 2.9 2zm-11.3-16.3h-15.3q-7.2-15.4-15-29.5-7.8-14-15.9-27.7-8-13.7-15.8-27.8-7.8-14-15-29.4 2.8 0 5.1-1.2 2.3-1.3 4.1-2.9 1.8-1.5 3.2-2.8 1.4-1.2 3-1.2 14.5 24.8 26.6 49.1 12 24.3 23.5 48.8 2.8 3.1 2.8 4.1 0 1-2.8 4.1 2.8 0 4.5 1.4 1.6 1.4 2.7 3.7 1 2.3 1.9 5.2 0.9 3 2.4 6.1z"/>
			<path id="Object 14" fill="#2c2e35" d="m241.7 162.1v17.9q5.1 0.8 10.8 0.9 5.8 0.2 11.6 0 5.9-0.2 11.6-0.6 5.8-0.3 10.8-0.3 1.8 1.7 2 4.5 0.3 2.8 0.3 4.5h-56.1v-26.9zm-2.2-56.1q0.5 0.8 1 1.5 0.4 0.6 0.8 1.4 0.4 0.8 0.4 1.6h-6.8q1-0.8 1.5-0.8 0.5-0.1 0.9 0.1 0.4 0.2 0.9 0.5 0.5 0.2 1.3 0.2zm-4.6 4.5q1 0 1.1 0.7 0.1 0.7 0.1 1.3 0 0.7 0.2 0.9 0.1 0.2 1-0.6-0.6 0.8-1.2 1.4-0.5 0.7-0.8 1.5-0.4 0.8-0.4 1.7 1.8 0 2.4-0.4 0.7-0.4 1.1-0.8 0.4-0.4 1.1-0.8 0.6-0.4 2.2-0.4 0 1.9-0.3 1.9-0.2 0-1.9-1.9 0.8 1 1.2 2.4 0.5 1.5 0.5 2.9 0 1.5-0.5 2.6-0.4 1-1.2 1 0.8 1.7 1.2 6.1 0.5 4.3 0.7 9.8 0.2 5.5 0.2 11.4 0.1 5.9 0.1 10.9h-9v-40.3q0-1.5 1.1-2 0.5-0.3 1.1-0.3 0-0.7-0.3-0.5-0.3 0.2-0.8 0.5-0.4 0.4-0.8 0.6-0.3 0.2-0.3-0.6 0-1.7 0.3-1.9 0.4-0.2 0.8 0 0.5 0.2 0.8 0.4 0.3 0.2 0.3-0.6 0-0.6-0.2-1.2-0.3-0.4-0.7-0.8-0.5-0.4-1.3-0.4 1.2 0 2-0.5 0.6-0.4 0.9-1.3 0.3-0.9-0.7-2.7z"/>
			<path id="Object 15" fill="#2c2e35" d="m307.9 163.8q0 0.8-0.3 1.3-0.4 0.6-0.8 1-0.5 0.4-0.8 0.8-0.4 0.5-0.4 1.3 0-0.5-0.2-0.8-0.3-0.3-0.7-0.1-0.4 0.1-1.2 0.9 0 0.7 0.3 1.2 0.5 1.1 1.8 1.1h-2.1v-4.4q-0.8 0-1.3-0.4-0.5-0.3-0.9-0.8-0.4-0.4-0.9-0.7-0.5-0.4-1.3-0.4 0.2-0.7 0.4-1.3 0.1 0.1 0.3 0.1 0.7 0.2 1.5-0.1 0.9-0.3 2.2-0.8-0.8 0-1.3-0.3-0.5-0.2-0.9-0.4-0.4-0.2-0.9-0.2-0.2 0.1-0.4 0.2 0.5-1.5 1.1-2.8 1.2-2.5 2.6-4.7 1.4-2.1 2.9-4.3 1.5-2.1 3.1-4.5 0-0.8-0.6-1.2-0.6-0.5-1.2-0.9-0.5-0.4-0.7-0.9-0.1-0.5 0.7-1.3l1.8 2.2v-2.2h-1.8l1.8-2.2q-1 0-1.7-0.2-0.6-0.3-0.8-0.6-0.2-0.4 0.7-1.2h1.8l2.3-2.1q-0.5 0-0.8-0.2-0.3-0.3-0.2-0.7 0.1-0.4 1-1.3h-2.3q0.8-0.8 0.7-1.3-0.1-0.5-0.5-0.8-0.4-0.4-0.6-1-0.2-0.5 0.4-1.3 0-0.7 0.7-0.8 0.7-0.1 1.3-0.1 0.6 0 0.8-0.2 0.3-0.1-0.5-0.8h6.5q0 0.7-0.3 0.8-0.4 0.2-0.8 0.2-0.4 0-0.7 0.1-0.3 0.1-0.3 0.8h2.1v-4.1q1.4 0 2.5-1.3 1.1-1.4-0.5-3.1 1.6-0.8 2.8-2.2 1.3-1.5 2.3-3.3 1-1.8 1.8-3.7 0.9-1.9 1.7-3.5 3.2 3.2 5 7.4 1.9 4.3 3.5 7.6v-2.3q1.7 0 2 1.4 0.2 1.4 0.2 3v-2.1q1.4 0 0.8 1-0.2 0.6-0.8 1.1 0 0.8 0.6 1.9 0.6 1.1 1.2 2.1 0.6 1 0.9 1.7 0.3 0.7-0.5 0.7 0 0.7 0 0.9 0 0.1 0.2-0.1 0.2-0.2 0.5-0.5 0.4-0.3 1.2-0.3 0.8 3.9 3 7.9 2.1 4 4.5 7.8 2.5 3.7 4.6 7.4 2.1 3.6 2.9 6.8 5.1 6.4 8.2 12.7 3.1 6.4 4.7 12.8-0.8 0-1.6 0.6-0.8 0.7-1.6 1.6-0.8 0.8-1.6 1.5-0.8 0.6-1.4 0.6-0.8-1.5-2-2.8-1.1-1.3-1.9-2.5-0.8-1.2-1.1-2.4-0.2-1.3 0.6-2.9-1.5 0-2 1.1-0.3 0.5-0.3 1.1-3.3-8-7.5-15-4.1-7.1-7.5-15-2.3 0-4.7-0.3-2.3-0.2-4.3-0.2-2 0-3.5 0.5-1.5 0.5-2.3 2.1-0.8-0.8-0.9-1.2-0.1 0-0.1-0.1-0.1 0.1-0.3 0.1-0.4 0.2-0.8 0-0.4-0.2-0.9-0.6-0.5-0.3-1.2-0.3v2.1q-0.8 0-1.4-0.3-0.5-0.3-0.9-0.7-0.4-0.4-0.9-0.8-0.4-0.3-1.2-0.3 0.5 0.5 0.8 1.1 0.5 1-0.8 1 0-1.6-1.3-1.8-1.2-0.3-2.8-0.3-1.8 0-2 0.3-0.3 0.2-0.3 1.8 0-0.5 0.3-0.8 0.2-0.2 0.6-0.1 0.4 0.1 1.4 0.9h-4.4q0.8 1.6 0.3 3.2-0.6 1.6-1.6 3-1 1.4-1.9 2.5-0.9 1.1-0.9 1.9 0-0.5-0.3-0.8-0.2-0.2-0.7-0.1-0.5 0.1-1.3 0.9-0.8 0-0.5 0.4 0.3 0.3 0.9 0.5 0.6 0.2 1.2 0.1 0.7-0.2 0.7-1zm2.8-36q0.1 0.4 0.1 0.8 0 0.5 0.2 0.8 0.2 0.4 1 0.4 0-0.6-0.3-1.1-0.2-0.4-0.7-0.8-0.3-0.3-0.8-0.4 0.4 0.1 0.5 0.3zm17.4 24.1q0.4-0.2 1-0.8-0.5 0-0.8 0.3-0.2 0.2-0.2 0.5zm-17.9-24.4q-0.2 0-0.5 0 0.3 0 0.5 0zm33.7-8.5q0 1.7-1 1.7-0.9 0-0.9-1.7zm-27.6 8.5q-1.7 0-2-0.2-0.3-0.2-0.3-1.7 0 1.5 0.3 2.8 0.3 1.3 2 1.4h6.2q-1.6-0.8-2.2-1-0.6-0.1-1-0.1-0.4 0-0.9-0.2-0.5-0.2-2.1-1zm4.1 21.6v-2.2q-0.5 0.6-0.8 1.1-0.5 1.1 0.8 1.1zm-17 10.6q0-0.5 0.3-1 0.5-1.1 1.8-1.1-0.8 0-0.9-0.1-0.1 0-0.1-0.2 0-0.2-0.2-0.7-0.1-0.5-0.9-1.3zm4.4 2q0-1.4-0.3-1.7-0.2-0.3-2-0.3 0 0.6 0.3 1.1 0.4 0.9 2 0.9zm-7.9-0.7q-0.3 0.8-0.5 1.5-0.4-0.2-0.4-0.8 0.5-0.4 0.9-0.7zm-5 9.5q0 0.4 0.3 0.6 0.4 0.6 1.6-0.6 0-0.8-0.3-1.3-0.4-0.4-0.6-0.7-0.6-0.3-1-0.3l1.9-2.1h4.4v2.1q-1.6 0-1.9-0.2-0.3-0.3-0.3-1.9-0.8 0.8-0.9 1.6-0.1 0.8 0.1 1.6 0.2 0.8 0.5 1.6 0.3 0.8 0.3 1.4-0.8 0-1 0.1-0.1 0.1-0.2 0.3 0.1 0.2-0.1 0.6-0.1 0.5-0.9 1.3h-1.9q0.7-0.8 0.8-1.3 0.2-0.6 0-1-0.2-0.4-0.5-0.8-0.3-0.4-0.3-1zm-2.2 6.4q-0.1-0.1-0.2-0.2 0.1 0 0.2 0zm-0.9-0.2q-0.2 0 0-0.2 0.2-0.1 0.4-0.4 0.1 0.3 0.3 0.6-0.6 0-0.7 0zm0.4-0.6q-0.1-0.2-0.1-0.5 0-0.8 0.3-1.3 0.3-0.5 0.3 0.3 0 0.8-0.4 1.2 0 0.2-0.1 0.3zm0.5 0.9q0.6 0.5 2.2-0.3 0 0.9-0.4 1.3-0.4 0.4-0.8 0.7-0.5 0.3-1 0.3v-2.1q0 0 0 0.1z"/>
			<path id="Object 16" fill="#2c2e35" d="m385.6 136.4h4.1q0-0.8 0-1.9 0-1-0.2-2-0.2-1-0.6-1.7-0.4-0.7-1.2-0.7 0.8 0 1.5-1.6 0.6-1.7 0.8-3.6 0.2-1.9-0.2-3.6-0.5-1.6-2.1-1.6 0.8-0.8 1.2-2.2 0.4-1.4 0.6-3.1 0.2-1.8 0.2-3.6 0-1.9 0-3.5 15.6-1.5 27.4 1.5 11.8 3.1 18.1 10.9 0.8 0 0.9-0.4 0.1-0.3 0.1-0.6 0-0.4 0.2-0.7 0.2-0.3 1-0.3 1.3 0 0.8 1-0.3 0.6-0.8 1 0 0.8 0.7 1.6 0.6 0.8 1.6 1.6 1 0.8 2 1.5 1 0.8 1.8 1.6h2.1q0 0.8-0.3 1.2-0.3 0.3-0.7 0.6-0.6 0.2-1.1 0.2 3.2 4.8 4.5 9.9 1.3 5.1-0.2 12.8 0 0.8 0.3 1.1 0.3 0.4 0.7 0.6 0.5 0.3 1.1 0.3h-2.1v2.2q0 3.1-1 5.8-1 2.7-2.4 5-1.4 2.4-2.8 4.3-1.4 1.9-2.2 3.5-0.8 0-1.2 0.3-0.4 0.4-0.8 0.8-0.4 0.4-0.9 0.7-0.5 0.3-1.3 0.3v2.1q-0.8 0-1-0.3-0.1-0.3-0.3-0.9-0.2-0.6-0.7-1.4-0.6-0.8-2.2-1.6h2.2q-0.8-0.8-1.6-0.6-0.8 0.2-1.5 0.6-0.8 0.4-1.6 0.6-0.8 0.2-1.6-0.6 0 1.6 0.3 2.9 0.3 1.3 1.9 1.3 0-1.5 0.2-2.1 0.3-0.5 1.7-2.1 0 0.5 0.3 1.1 0.5 1 1.9 1-0.8 0.8-1 1.3-0.1 0.4 0.1 0.8 0.2 0.4 0.5 0.9 0.4 0.5 0.4 1.3-1.6 0-2.2-0.3-0.5-0.3-1.9-1.9 0.5 0.7 0.8 1.4 0.5 1.4-0.8 2.8-0.8 0.7-2 0.9-1.1 0.1-2.3 0.1-1.2 0-2.2 0.1-1.1 0.2-1.9 1h-2.1q-1.5 1.4-0.5 1.7 1 0.3 2.6 0.3-1.6 1.7-4 1.7-2.5 0-4.1-1.7v2.2q-2.4 0.8-5.3 0.9-3 0-6.1-0.2-3.2-0.2-6.1-0.4-3-0.3-5.4-0.3 0-4.8-0.3-9.2-0.2-3.6-1.2-6.3 0.3-0.7 0.4-1.7 0-1.7 0-3.7 0-1.9 0.2-3.7 0.1-1.8 0.9-2.6-0.8-0.8-1.2-0.8-0.4-0.1-0.8 0.1-0.4 0.2-0.9 0.5-0.4 0.2-1.2 0.2 0.8-0.8 0.8-0.8 0.1-0.1-0.1-0.1-0.2 0-0.5-0.1-0.2-0.2-0.2-0.9 0.8-0.8 1.4-1.6 0.7-0.8 0.9-1.8 0.2-1-0.3-2.2-0.1-0.3-0.2-0.5 0.1-0.2 0.3-0.3h-0.5q-0.5-0.9-1.6-2-0.8 0.8-2.3 0.5-1.6-0.2-2.6-1-1-0.7-0.6-1.6 0.3-1 3.5-1.7v1.9q1.2 0 1.7-0.9 0.3-0.5 0.3-1 0.8-0.8 1.2-0.6 0.4 0.2 0.6 0.8 0.3 0.7 0.3 1.7 1.3-1.3 0.8-2.7-0.3-0.7-0.8-1.4h2q0-0.5-0.3-1-0.5-1.1-1.7-1.1 0-1.6 1.3-1.8 1.2-0.3 2.9-0.3 0-0.8-0.4-0.9-0.4 0-1 0-0.5 0-1.3-0.2-0.7-0.1-1.5-0.9v2q-0.8 0-0.9-0.3-0.2-0.2-0.2-0.4 0-0.2-0.1-0.2-0.1 0.1-0.9 0.9 0.8-1.6 0.6-2.5-0.2-0.8-0.8-1.4-0.6-0.5-1.2-1-0.6-0.4-0.6-1.2 1.4 0 1.7 0.3 0.3 0.2 0.3 1.7zm2.6 36.3q-0.2 0.5-0.5 0.8v-2q0.3 0.6 0.5 1.2zm-4.6-30.1h2q0 0.8-0.6 1.2-0.6 0.4-1.2 0.4-0.6 0-0.8-0.4-0.2-0.4 0.6-1.2zm68.3 8.1v2h-2q0.4 0 0.9-0.3 0.4-0.2 0.7-0.6 0.4-0.3 0.4-1.1zm-64.7 2q0.1 0.1 0.2 0.3-1.3 1.4-1.8 1.4-0.6 0-2-1.7zm-1.7 4.2q-0.8 0-0.8 0.1-0.1 0.1 0.1 0.3 0.2 0.2 0.5 0.6 0.2 0.4 0.2 1.2-1.4-0.1-1.9-0.3-0.6-0.3-2.2-1.9zm62.2 10.5q0 1.5-1.3 1.7-1.3 0.3-2.9 0.3 0-1.5 1.3-1.7 1.3-0.3 2.9-0.3zm0 4.1h2.1q0 0.5-0.2 1.1-0.6 0.9-1.9 0.9zm0-57.9q1.3 1.3 0.8 2.7-0.3 0.7-0.8 1.4h-2.1q0-1.6 0.3-2.9 0.2-1.2 1.8-1.2zm-53.8 26.9h2.1v-2q0 0.5-0.3 1-0.5 1-1.8 1zm41.2 0q0.8 0.8 2.3 1.2 1.4 0.4 3 0.4 1.6 0 3-0.4 1.4-0.4 2.2-1.2-0.8 0-2.2-0.3-1.4-0.3-3-0.5-1.6-0.2-3-0.1-1.5 0.1-2.3 0.9zm8.4 18.5q0-1.6-0.3-1.8-0.3-0.3-1.7-0.3 0 1.6 0.2 1.9 0.3 0.2 1.8 0.2zm-17.7 12.2q0 0-0.1 0 0.4 0.3 1.2 0.3-0.5 0-1.1-0.3zm-0.1 0q-0.2-0.2-0.4-0.4 0.1 0.2 0.4 0.4 0 0 0 0zm-0.4-0.4q-0.4-0.5-0.4-1.4-0.8 0-1 0.3 0.1 0 0.1 0 0.5 0.3 0.9 0.7 0.2 0.2 0.4 0.4zm-2.6-1.4v4.1q0.7-0.8 0.9-1.5 0.1-0.8 0.1-1.4 0-0.6 0.2-0.9 0 0 0 0-0.5-0.3-1.2-0.3zm-8 6.2q-0.5-0.7-1.1-1.3-0.4-0.7-0.7-1.3-0.3-0.7-0.3-1.5 0 0.8 0 1.8 0 1 0.2 1.8 0.2 0.8 0.6 1 0.5 0.3 1.3-0.5zm-14.6 0q0.8 0 1.2 0.3 0.4 0.4 0.6 0.6 0.2 0.2 0.2 0 0-0.1 0-0.9 0-1.3-1.1-0.8-0.5 0.3-0.9 0.8zm4.3 4.3l1-1.2q-0.4 0.1-0.8 0.1-0.6 0-0.8 0.1-0.2 0.2 0.6 1zm1-1.2q0.2 0 0.3 0 0.6-0.2 0.6-1zm15.3 3.1h2q0-1.5-0.4-2-0.3-0.5-0.6-0.3-0.3 0.2-0.7 0.9-0.3 0.7-0.3 1.4zm-2.1 0q0-1.4-0.3-1.7-0.3-0.2-1.7-0.2 0 1.3 0.9 1.7 0.5 0.2 1.1 0.2zm4.1 0h2.2q0-0.3-0.2-0.9-0.6-1-2-1zm-20.6 1.7q0.1 0 0.2 0.1 0.1 0 0.1 0-0.1 0.1-0.3 0.3zm1.6-0.3q0.8 0.2 1.4 0.6 0.6 0.4 0.9 0.6 0.4 0.2 0.4-0.6-1.5-1.5-2-1.8-0.5-0.3-2.3-0.3v1.8q-0.7-0.1-1.3 0.3-0.7 0.4-0.7 2h4.3q0-0.8-0.7-1.4-0.6-0.6-1.3-0.8 0.7-0.5 1.3-0.4zm4.8 0.6q0 0.6 0.3 1.1 0.4 0.9 1.7 0.9 0.8 0 0.6-0.3-0.2-0.3-0.6-0.7-0.4-0.3-0.6-0.6-0.2-0.4 0.6-0.4v-2.1h-2zm4.1 2h4q0-0.7-0.3-1-0.4-0.4-0.6-0.7-0.6-0.3-1-0.3-0.5 0-1 0.3-1.1 0.5-1.1 1.7zm-14.6 0v-2h-2q0 0.6 0.3 1.1 0.4 0.9 1.7 0.9zm39.4-74.4h2q-0.7 0.6-1.3 1.1-1.5 0.9-3 0.9 0-1.2 1.1-1.7 0.5-0.3 1.2-0.3zm-53.8 6.1h2q-0.8 0.8-1 1.6-0.1 0.7-0.1 1.3 0 0.6-0.1 1 0 0.4-0.8 0.4 0.8-0.8 0.8-1.4 0.1-0.5-0.1-0.9-0.2-0.4-0.5-0.8-0.2-0.4-0.2-1.2z"/>
			<path id="Object 17" fill="#2c2e35" d="m464.9 107.3v52.4h-8.4v-52.4q0-0.8 1-0.8 1-0.1 2.4 0.1 1.4 0.2 2.8 0.5 1.4 0.2 2.2 0.2zm0 54.5v27.2h-8.4v-27.2z"/>
		</g>
	</g>
</symbol><symbol id="developer-logo" viewBox="0 0 128 128"><g fill="none">
<g clip-path="url(#clip0_1_11)">
<path d="M53.6168 105.3C52.7501 105.3 52.0168 105 51.4168 104.4C50.8835 103.867 50.6168 103.167 50.6168 102.3V84.6C42.2835 83.8667 35.2501 80.9333 29.5168 75.8C23.7835 70.6667 19.7835 63.8667 17.5168 55.4C17.0501 53.6667 16.7168 51.8 16.5168 49.8C16.3168 47.7333 16.2168 45.6667 16.2168 43.6C16.2168 42 16.2835 40.4333 16.4168 38.9C16.5501 37.3 16.7168 35.7667 16.9168 34.3C17.0501 33.3667 17.3835 32.7 17.9168 32.3C18.5168 31.9 19.1501 31.7 19.8168 31.7C20.8168 31.7 21.6168 32 22.2168 32.6C22.8168 33.1333 23.0501 33.9667 22.9168 35.1C22.7168 36.4333 22.5835 37.8 22.5168 39.2C22.4501 40.5333 22.4168 41.8667 22.4168 43.2C22.4168 47.1333 22.8168 50.8667 23.6168 54.4C25.0168 59.4667 27.1501 63.8333 30.0168 67.5C32.9501 71.1667 36.4501 74 40.5168 76C44.5835 77.9333 49.0501 78.9 53.9168 78.9C58.8501 78.9 63.3168 77.9 67.3168 75.9C71.3835 73.8333 74.8168 70.9667 77.6168 67.3C80.4835 63.5667 82.5501 59.2 83.8168 54.2C84.2168 52.5333 84.4835 50.9 84.6168 49.3C84.8168 47.7 84.9168 46.1 84.9168 44.5C84.9168 42.9 84.8501 41.3333 84.7168 39.8C84.5835 38.2 84.3835 36.6333 84.1168 35.1C84.0501 33.8333 84.3168 32.9667 84.9168 32.5C85.5835 31.9667 86.2835 31.7 87.0168 31.7C87.6835 31.7 88.3168 31.9333 88.9168 32.4C89.5168 32.8 89.9168 33.4 90.1168 34.2C90.3835 35.8667 90.5501 37.5667 90.6168 39.3C90.7501 40.9667 90.8168 42.6667 90.8168 44.4C90.8168 46.2667 90.7168 48.1333 90.5168 50C90.3835 51.8 90.1168 53.5667 89.7168 55.3C87.6501 63.9 83.6835 70.7667 77.8168 75.9C72.0168 81.0333 64.9501 83.9333 56.6168 84.6V102.3C56.6168 103.367 56.2835 104.133 55.6168 104.6C55.0168 105.067 54.3501 105.3 53.6168 105.3Z" fill="white"/>
<path d="M51.4168 104.4L53.5381 102.279L53.5381 102.279L51.4168 104.4ZM50.6168 84.6H53.6168V81.8524L50.8798 81.6115L50.6168 84.6ZM29.5168 75.8L31.5179 73.565L29.5168 75.8ZM17.5168 55.4L20.4147 54.6242L20.4136 54.6201L17.5168 55.4ZM16.5168 49.8L13.5307 50.089L13.5317 50.0985L16.5168 49.8ZM16.4168 38.9L19.4055 39.1599L19.4064 39.1491L16.4168 38.9ZM16.9168 34.3L13.9469 33.8757L13.9456 33.8852L13.9443 33.8947L16.9168 34.3ZM17.9168 32.3L16.2527 29.8039L16.1834 29.85L16.1168 29.9L17.9168 32.3ZM22.2168 32.6L20.0955 34.7213L20.1578 34.7837L20.2237 34.8422L22.2168 32.6ZM22.9168 35.1L25.8836 35.545L25.8907 35.4979L25.8962 35.4505L22.9168 35.1ZM22.5168 39.2L25.5131 39.3498L25.5134 39.3427L22.5168 39.2ZM23.6168 54.4L20.6909 55.0625L20.7064 55.1311L20.7252 55.199L23.6168 54.4ZM30.0168 67.5L27.6534 69.3478L27.6637 69.361L27.6742 69.3741L30.0168 67.5ZM40.5168 76L39.1928 78.692L39.2107 78.7008L39.2287 78.7094L40.5168 76ZM67.3168 75.9L68.6584 78.5833L68.6672 78.5789L68.6759 78.5745L67.3168 75.9ZM77.6168 67.3L75.2373 65.4729L75.2325 65.4793L77.6168 67.3ZM83.8168 54.2L86.7249 54.9367L86.7296 54.9184L86.734 54.9001L83.8168 54.2ZM84.6168 49.3L81.64 48.9279L81.6323 48.9892L81.6272 49.0509L84.6168 49.3ZM84.7168 39.8L81.7271 40.0491L81.7281 40.0599L84.7168 39.8ZM84.1168 35.1L81.1209 35.2577L81.1304 35.4371L81.1612 35.614L84.1168 35.1ZM84.9168 32.5L86.7586 34.868L86.7748 34.8554L86.7909 34.8426L84.9168 32.5ZM88.9168 32.4L87.075 34.7681L87.1615 34.8353L87.2527 34.8962L88.9168 32.4ZM90.1168 34.2L93.0791 33.726L93.0587 33.5981L93.0272 33.4724L90.1168 34.2ZM90.6168 39.3L87.619 39.4153L87.6214 39.4773L87.6264 39.5392L90.6168 39.3ZM90.5168 50L87.5339 49.6804L87.5286 49.7293L87.525 49.7784L90.5168 50ZM89.7168 55.3L92.6338 56.001L92.6369 55.9878L92.64 55.9746L89.7168 55.3ZM77.8168 75.9L75.8413 73.6423L75.8349 73.6479L75.8285 73.6535L77.8168 75.9ZM56.6168 84.6L56.3776 81.6096L53.6168 81.8304V84.6H56.6168ZM55.6168 104.6L53.8964 102.142L53.8346 102.186L53.775 102.232L55.6168 104.6ZM53.6168 102.3C53.5737 102.3 53.551 102.296 53.5447 102.295C53.5389 102.294 53.5429 102.294 53.5527 102.298C53.5571 102.3 53.5612 102.302 53.5647 102.304C53.5664 102.305 53.5678 102.306 53.5688 102.306C53.5697 102.307 53.5702 102.307 53.5702 102.307C53.5702 102.307 53.5696 102.307 53.5684 102.306C53.5671 102.305 53.5652 102.303 53.5626 102.301C53.5575 102.297 53.5492 102.29 53.5381 102.279L49.2955 106.521C50.4714 107.697 51.9735 108.3 53.6168 108.3V102.3ZM53.5381 102.279C53.5495 102.29 53.5664 102.309 53.5837 102.336C53.601 102.363 53.613 102.388 53.6203 102.407C53.6273 102.425 53.6268 102.43 53.6243 102.415C53.6217 102.4 53.6168 102.363 53.6168 102.3H47.6168C47.6168 103.834 48.1147 105.341 49.2955 106.521L53.5381 102.279ZM53.6168 102.3V84.6H47.6168V102.3H53.6168ZM50.8798 81.6115C43.1325 80.9298 36.7258 78.2278 31.5179 73.565L27.5157 78.035C33.7745 83.6389 41.4344 86.8035 50.3538 87.5885L50.8798 81.6115ZM31.5179 73.565C26.2772 68.8727 22.5522 62.6081 20.4147 54.6242L14.6189 56.1758C17.0147 65.1252 21.2897 72.4607 27.5157 78.035L31.5179 73.565ZM20.4136 54.6201C19.9941 53.062 19.6875 51.3579 19.5019 49.5015L13.5317 50.0985C13.746 52.2421 14.1061 54.2714 14.6199 56.1799L20.4136 54.6201ZM19.5028 49.511C19.3121 47.54 19.2168 45.5697 19.2168 43.6H13.2168C13.2168 45.7636 13.3215 47.9267 13.5307 50.089L19.5028 49.511ZM19.2168 43.6C19.2168 42.0833 19.28 40.6035 19.4055 39.1599L13.4281 38.6401C13.2869 40.2632 13.2168 41.9166 13.2168 43.6H19.2168ZM19.4064 39.1491C19.5358 37.597 19.6969 36.116 19.8893 34.7053L13.9443 33.8947C13.7367 35.4174 13.5645 37.003 13.4272 38.6509L19.4064 39.1491ZM19.8866 34.7243C19.9025 34.6135 19.9205 34.5374 19.9343 34.49C19.948 34.4429 19.956 34.4298 19.9501 34.4416C19.9437 34.4544 19.9234 34.4916 19.8826 34.5418C19.8411 34.5929 19.7857 34.6484 19.7168 34.7L16.1168 29.9C14.7224 30.9458 14.1457 32.4846 13.9469 33.8757L19.8866 34.7243ZM19.5809 34.7961C19.7302 34.6966 19.7911 34.7 19.8168 34.7V28.7C18.5092 28.7 17.3034 29.1034 16.2527 29.8039L19.5809 34.7961ZM19.8168 34.7C20.0172 34.7 20.1023 34.7298 20.1134 34.734C20.1195 34.7363 20.1157 34.7354 20.107 34.7298C20.0983 34.7241 20.094 34.7198 20.0955 34.7213L24.3381 30.4787C23.0759 29.2165 21.4596 28.7 19.8168 28.7V34.7ZM20.2237 34.8422C20.1523 34.7788 20.0877 34.7017 20.0367 34.6181C19.9865 34.5359 19.9627 34.469 19.9529 34.4339C19.9437 34.4011 19.9492 34.4051 19.9519 34.4586C19.9547 34.5127 19.9541 34.6074 19.9373 34.7495L25.8962 35.4505C26.0923 33.7838 25.8208 31.7897 24.2099 30.3578L20.2237 34.8422ZM19.95 34.655C19.7344 36.0924 19.5915 37.5601 19.5202 39.0573L25.5134 39.3427C25.5754 38.0399 25.6992 36.7743 25.8836 35.545L19.95 34.655ZM19.5205 39.0502C19.4514 40.4334 19.4168 41.8166 19.4168 43.2H25.4168C25.4168 41.9167 25.4489 40.6333 25.5131 39.3498L19.5205 39.0502ZM19.4168 43.2C19.4168 47.3373 19.8376 51.2941 20.6909 55.0625L26.5427 53.7375C25.796 50.4392 25.4168 46.9293 25.4168 43.2H19.4168ZM20.7252 55.199C22.2168 60.5975 24.5137 65.3319 27.6534 69.3478L32.3802 65.6522C29.7865 62.3347 27.8167 58.3358 26.5084 53.601L20.7252 55.199ZM27.6742 69.3741C30.8726 73.3721 34.7162 76.4904 39.1928 78.692L41.8408 73.3079C38.184 71.5096 35.0276 68.9612 32.3594 65.6259L27.6742 69.3741ZM39.2287 78.7094C43.7296 80.8492 48.6411 81.9 53.9168 81.9V75.9C49.4591 75.9 45.4373 75.0175 41.8049 73.2906L39.2287 78.7094ZM53.9168 81.9C59.2671 81.9 64.2004 80.8123 68.6584 78.5833L65.9752 73.2167C62.4332 74.9877 58.4331 75.9 53.9168 75.9V81.9ZM68.6759 78.5745C73.1488 76.3014 76.931 73.1411 80.0011 69.1207L75.2325 65.4793C72.7026 68.7922 69.6182 71.3653 65.9576 73.2255L68.6759 78.5745ZM79.9963 69.1271C83.1344 65.0402 85.3677 60.2942 86.7249 54.9367L80.9087 53.4633C79.7326 58.1058 77.8325 62.0931 75.2374 65.4729L79.9963 69.1271ZM86.734 54.9001C87.1672 53.0951 87.4596 51.3109 87.6064 49.5491L81.6272 49.0509C81.5073 50.4891 81.2664 51.9716 80.8996 53.4999L86.734 54.9001ZM87.5936 49.6721C87.8089 47.9496 87.9168 46.2254 87.9168 44.5H81.9168C81.9168 45.9746 81.8247 47.4504 81.64 48.9279L87.5936 49.6721ZM87.9168 44.5C87.9168 42.8166 87.8467 41.1632 87.7055 39.5401L81.7281 40.0599C81.8536 41.5035 81.9168 42.9833 81.9168 44.5H87.9168ZM87.7064 39.5509C87.5659 37.8649 87.3548 36.2098 87.0724 34.586L81.1612 35.614C81.4121 37.0569 81.601 38.5351 81.7272 40.0491L87.7064 39.5509ZM87.1127 34.9423C87.1023 34.7459 87.1071 34.6026 87.1162 34.505C87.1254 34.407 87.1375 34.3713 87.1341 34.3823C87.1302 34.395 87.1075 34.4632 87.0446 34.56C86.9793 34.6604 86.8844 34.7702 86.7586 34.868L83.075 30.1319C81.296 31.5156 81.0373 33.6685 81.1209 35.2577L87.1127 34.9423ZM86.7909 34.8426C86.9145 34.7437 86.9882 34.7117 87.0098 34.7035C87.0211 34.6992 87.0245 34.6989 87.0218 34.6994C87.0189 34.6999 87.0164 34.7 87.0168 34.7V28.7C85.4938 28.7 84.1499 29.2716 83.0427 30.1574L86.7909 34.8426ZM87.0168 34.7C87.0074 34.7 86.9946 34.6991 86.9806 34.6966C86.9665 34.694 86.9574 34.691 86.9547 34.69C86.9478 34.6875 86.9883 34.7006 87.075 34.7681L90.7586 30.0319C89.7095 29.2159 88.4425 28.7 87.0168 28.7V34.7ZM87.2527 34.8962C87.2416 34.8887 87.2254 34.8763 87.208 34.8588C87.1905 34.8414 87.1781 34.8252 87.1707 34.8141C87.1635 34.8034 87.165 34.8033 87.1719 34.8193C87.1789 34.8357 87.192 34.8702 87.2064 34.9276L93.0272 33.4724C92.674 32.0597 91.8911 30.7773 90.5809 29.9038L87.2527 34.8962ZM87.1545 34.674C87.4016 36.2187 87.5568 37.7988 87.619 39.4153L93.6146 39.1847C93.5434 37.3345 93.3653 35.5147 93.0791 33.726L87.1545 34.674ZM87.6264 39.5392C87.7531 41.1235 87.8168 42.7436 87.8168 44.4H93.8168C93.8168 42.5897 93.7472 40.8099 93.6072 39.0608L87.6264 39.5392ZM87.8168 44.4C87.8168 46.1593 87.7226 47.9193 87.5339 49.6804L93.4997 50.3196C93.711 48.3474 93.8168 46.374 93.8168 44.4H87.8168ZM87.525 49.7784C87.4028 51.4281 87.1587 53.0433 86.7936 54.6254L92.64 55.9746C93.0749 54.0901 93.3641 52.1719 93.5086 50.2216L87.525 49.7784ZM86.7998 54.599C84.858 62.6796 81.1792 68.9716 75.8413 73.6423L79.7923 78.1577C86.1877 72.5617 90.4423 65.1204 92.6338 56.001L86.7998 54.599ZM75.8285 73.6535C70.555 78.3209 64.1173 80.9904 56.3776 81.6096L56.856 87.5904C65.783 86.8763 73.4786 83.7458 79.8051 78.1465L75.8285 73.6535ZM53.6168 84.6V102.3H59.6168V84.6H53.6168ZM53.6168 102.3C53.6168 102.531 53.5796 102.562 53.6156 102.479C53.6348 102.435 53.6691 102.372 53.724 102.304C53.7793 102.236 53.8401 102.182 53.8964 102.142L57.3372 107.058C59.0466 105.861 59.6168 104.009 59.6168 102.3H53.6168ZM53.775 102.232C53.712 102.281 53.6797 102.292 53.6757 102.293C53.6718 102.295 53.6676 102.296 53.6611 102.297C53.6544 102.298 53.6404 102.3 53.6168 102.3V108.3C55.043 108.3 56.3527 107.828 57.4586 106.968L53.775 102.232Z" fill="white"/>
<path d="M53.7121 105.3C52.8454 105.3 52.1121 105.033 51.5121 104.5C50.9788 104.033 50.7121 103.333 50.7121 102.4L48.4121 34.3C48.4121 32.2333 49.4788 31.2 51.6121 31.2C53.0121 31.2 53.9121 31.9 54.3121 33.3C62.1121 30.1667 69.1121 28.4 75.3121 28C76.0454 27.9333 76.7788 27.9 77.5121 27.9C78.3121 27.8333 79.0788 27.8 79.8121 27.8C87.1454 27.8 93.6788 29.2667 99.4121 32.2C105.212 35.1333 109.712 39.5667 112.912 45.5C115.379 50.3 116.612 55.2 116.612 60.2C116.612 63.8 115.945 67.3 114.612 70.7C113.345 74.1 111.445 77.2333 108.912 80.1C105.245 84.3 100.679 87.3 95.2121 89.1C89.7454 90.9 83.9454 91.8 77.8121 91.8C74.6788 91.8 71.5121 91.6 68.3121 91.2C65.1788 90.7333 62.0454 90.1333 58.9121 89.4C58.1121 89.2667 57.5121 88.9333 57.1121 88.4C56.7788 87.8 56.6121 87.2333 56.6121 86.7C56.6121 86.4333 56.6788 86.1 56.8121 85.7C57.2121 84.2333 58.2454 83.5 59.9121 83.5C60.1788 83.5 60.4121 83.5333 60.6121 83.6C60.8121 83.6 61.0454 83.6333 61.3121 83.7C64.2454 84.5 67.2454 85.1333 70.3121 85.6C73.3788 86 76.3454 86.2 79.2121 86.2C84.2788 86.2 89.0121 85.4667 93.4121 84C97.8121 82.5333 101.545 80.1 104.612 76.7C108.879 71.8333 111.012 66.3667 111.012 60.3C111.012 55.7667 109.812 51.4667 107.412 47.4C104.545 42.6667 100.712 39.1667 95.9121 36.9C91.1788 34.6333 85.9454 33.5 80.2121 33.5C79.1454 33.5 78.0121 33.5667 76.8121 33.7C75.6788 33.7667 74.5454 33.8667 73.4121 34C67.7454 34.7333 61.4788 36.6333 54.6121 39.7L56.7121 102.2C56.7121 103.267 56.3788 104.033 55.7121 104.5C55.1121 105.033 54.4454 105.3 53.7121 105.3Z" fill="white"/>
<path d="M51.5121 104.5L53.5052 102.258L53.4964 102.25L53.4876 102.242L51.5121 104.5ZM50.7121 102.4H53.7121V102.349L53.7104 102.299L50.7121 102.4ZM48.4121 34.3H45.4121V34.3506L45.4138 34.4013L48.4121 34.3ZM54.3121 33.3L51.4275 34.1242L52.3419 37.3245L55.4304 36.0838L54.3121 33.3ZM75.3121 28L75.5053 30.9938L75.5445 30.9912L75.5837 30.9877L75.3121 28ZM77.5121 27.9V30.9H77.6369L77.7612 30.8896L77.5121 27.9ZM99.4121 32.2L98.0457 34.8708L98.0582 34.8771L99.4121 32.2ZM112.912 45.5L115.58 44.1288L115.567 44.1022L115.553 44.0759L112.912 45.5ZM114.612 70.7L111.819 69.6047L111.81 69.6286L111.801 69.6527L114.612 70.7ZM108.912 80.1L106.664 78.1134L106.658 78.1202L106.652 78.127L108.912 80.1ZM95.2121 89.1L96.1504 91.9495L96.1504 91.9495L95.2121 89.1ZM68.3121 91.2L67.8702 94.1673L67.905 94.1725L67.94 94.1768L68.3121 91.2ZM58.9121 89.4L59.5958 86.4789L59.5012 86.4568L59.4053 86.4408L58.9121 89.4ZM57.1121 88.4L54.4896 89.8569L54.5892 90.0361L54.7121 90.2L57.1121 88.4ZM56.8121 85.7L59.6582 86.6487L59.6845 86.5697L59.7064 86.4894L56.8121 85.7ZM60.6121 83.6L59.6634 86.446L60.1253 86.6H60.6121V83.6ZM61.3121 83.7L62.1015 80.8057L62.0707 80.7973L62.0397 80.7896L61.3121 83.7ZM70.3121 85.6L69.8608 88.5659L69.8924 88.5707L69.9241 88.5748L70.3121 85.6ZM93.4121 84L94.3608 86.846L94.3608 86.846L93.4121 84ZM104.612 76.7L106.84 78.7093L106.854 78.6936L106.868 78.6777L104.612 76.7ZM107.412 47.4L109.996 45.8752L109.987 45.8605L109.978 45.8459L107.412 47.4ZM95.9121 36.9L94.6164 39.6058L94.6237 39.6093L94.6311 39.6127L95.9121 36.9ZM76.8121 33.7L76.9883 36.6948L77.066 36.6902L77.1434 36.6816L76.8121 33.7ZM73.4121 34L73.0616 31.0205L73.0443 31.0226L73.0271 31.0248L73.4121 34ZM54.6121 39.7L53.3888 36.9608L51.546 37.7837L51.6138 39.8007L54.6121 39.7ZM56.7121 102.2H59.7121V102.15L59.7104 102.099L56.7121 102.2ZM55.7121 104.5L53.9917 102.042L53.8491 102.142L53.719 102.258L55.7121 104.5ZM53.7121 102.3C53.5899 102.3 53.5411 102.282 53.5373 102.281C53.5336 102.279 53.5322 102.278 53.5306 102.278C53.5288 102.276 53.5204 102.271 53.5052 102.258L49.519 106.742C50.7138 107.804 52.1742 108.3 53.7121 108.3V102.3ZM53.4876 102.242C53.543 102.291 53.5939 102.348 53.6363 102.41C53.6782 102.471 53.7027 102.523 53.7156 102.557C53.7398 102.62 53.7121 102.588 53.7121 102.4H47.7121C47.7121 103.908 48.1614 105.554 49.5366 106.758L53.4876 102.242ZM53.7104 102.299L51.4104 34.1987L45.4138 34.4013L47.7138 102.501L53.7104 102.299ZM51.4121 34.3C51.4121 34.1696 51.4206 34.0749 51.43 34.0111C51.4347 33.9796 51.4394 33.9567 51.443 33.9417C51.4465 33.9266 51.4489 33.9197 51.4489 33.9198C51.4485 33.9208 51.439 33.9479 51.4126 33.9906C51.3855 34.0343 51.3477 34.083 51.2995 34.1297C51.2515 34.1762 51.2053 34.2089 51.1697 34.2296C51.1352 34.2497 51.1198 34.2532 51.134 34.2486C51.1685 34.2374 51.3118 34.2 51.6121 34.2V28.2C50.1065 28.2 48.4219 28.5636 47.1247 29.8203C45.8099 31.0941 45.4121 32.7796 45.4121 34.3H51.4121ZM51.6121 34.2C51.7136 34.2 51.7327 34.2128 51.6949 34.2013C51.6757 34.1954 51.6456 34.1844 51.6085 34.1654C51.5712 34.1463 51.5325 34.122 51.4953 34.0931C51.4165 34.0317 51.377 33.9756 51.3676 33.9603C51.3613 33.9502 51.3903 33.9938 51.4275 34.1242L57.1967 32.4758C56.8704 31.334 56.2554 30.1942 55.1789 29.3569C54.0912 28.511 52.8233 28.2 51.6121 28.2V34.2ZM55.4304 36.0838C63.0321 33.0301 69.7126 31.3675 75.5053 30.9938L75.119 25.0062C68.5116 25.4325 61.1921 27.3032 53.1938 30.5162L55.4304 36.0838ZM75.5837 30.9877C76.2271 30.9292 76.8698 30.9 77.5121 30.9V24.9C76.6877 24.9 75.8638 24.9375 75.0405 25.0123L75.5837 30.9877ZM77.7612 30.8896C78.4861 30.8292 79.1693 30.8 79.8121 30.8V24.8C78.9883 24.8 78.1382 24.8374 77.263 24.9104L77.7612 30.8896ZM79.8121 30.8C86.7367 30.8 92.7907 32.1821 98.0457 34.8707L100.779 29.5292C94.5669 26.3512 87.5542 24.8 79.8121 24.8V30.8ZM98.0582 34.8771C103.29 37.5232 107.351 41.5087 110.272 46.9241L115.553 44.0759C112.073 37.6247 107.134 32.7435 100.766 29.5229L98.0582 34.8771ZM110.244 46.8712C112.51 51.2814 113.612 55.7142 113.612 60.2H119.612C119.612 54.6858 118.247 49.3186 115.58 44.1288L110.244 46.8712ZM113.612 60.2C113.612 63.4197 113.018 66.5485 111.819 69.6047L117.405 71.7953C118.873 68.0515 119.612 64.1803 119.612 60.2H113.612ZM111.801 69.6527C110.67 72.6892 108.967 75.5074 106.664 78.1134L111.16 82.0866C113.924 78.9592 116.021 75.5108 117.423 71.7473L111.801 69.6527ZM106.652 78.127C103.351 81.9081 99.2466 84.6131 94.2739 86.2505L96.1504 91.9495C102.111 89.9869 107.14 86.6919 111.172 82.073L106.652 78.127ZM94.2739 86.2505C89.1293 87.9444 83.6477 88.8 77.8121 88.8V94.8C84.2432 94.8 90.3616 93.8556 96.1504 91.9495L94.2739 86.2505ZM77.8121 88.8C74.8067 88.8 71.7644 88.6082 68.6842 88.2232L67.94 94.1768C71.2599 94.5918 74.5508 94.8 77.8121 94.8V88.8ZM68.754 88.2327C65.7032 87.7783 62.6504 87.1939 59.5958 86.4789L58.2285 92.3211C61.4404 93.0728 64.6544 93.6883 67.8702 94.1673L68.754 88.2327ZM59.4053 86.4408C59.2835 86.4205 59.2705 86.4006 59.319 86.4275C59.3434 86.4411 59.3771 86.4631 59.4144 86.4954C59.4519 86.5279 59.485 86.5639 59.5121 86.6L54.7121 90.2C55.6712 91.4788 57.0323 92.1281 58.4189 92.3592L59.4053 86.4408ZM59.7346 86.9431C59.5795 86.664 59.6121 86.5976 59.6121 86.7H53.6121C53.6121 87.869 53.978 88.936 54.4896 89.8569L59.7346 86.9431ZM59.6121 86.7C59.6121 86.7573 59.6086 86.7979 59.6063 86.8188C59.6039 86.84 59.6021 86.847 59.6039 86.8383C59.6055 86.8299 59.6099 86.8097 59.6189 86.7769C59.6278 86.7441 59.6405 86.7016 59.6582 86.6487L53.9661 84.7513C53.7828 85.3011 53.6121 85.9796 53.6121 86.7H59.6121ZM59.7064 86.4894C59.737 86.377 59.7599 86.3514 59.7444 86.3751C59.7368 86.3869 59.7221 86.407 59.6994 86.4308C59.6765 86.4548 59.6505 86.4773 59.6234 86.4965C59.5655 86.5376 59.5349 86.5414 59.5672 86.5326C59.605 86.5223 59.712 86.5 59.9121 86.5V80.5C58.6511 80.5 57.3133 80.7785 56.1509 81.6035C54.9606 82.4482 54.2625 83.6468 53.9178 84.9106L59.7064 86.4894ZM59.9121 86.5C59.9377 86.5 59.838 86.5042 59.6634 86.446L61.5608 80.754C60.9862 80.5624 60.4198 80.5 59.9121 80.5V86.5ZM60.6121 86.6C60.5791 86.6 60.5542 86.5986 60.5383 86.5974C60.5223 86.5962 60.5136 86.595 60.5128 86.5948C60.512 86.5947 60.5176 86.5955 60.53 86.598C60.5424 86.6005 60.5605 86.6044 60.5845 86.6104L62.0397 80.7896C61.6169 80.6839 61.1294 80.6 60.6121 80.6V86.6ZM60.5228 86.5943C63.5695 87.4252 66.6825 88.0822 69.8608 88.5659L70.7634 82.6341C67.8084 82.1845 64.9214 81.5748 62.1015 80.8057L60.5228 86.5943ZM69.9241 88.5748C73.1094 88.9903 76.206 89.2 79.2121 89.2V83.2C76.4849 83.2 73.6481 83.0097 70.7001 82.6252L69.9241 88.5748ZM79.2121 89.2C84.5715 89.2 89.6279 88.4237 94.3608 86.846L92.4634 81.1539C88.3963 82.5097 83.986 83.2 79.2121 83.2V89.2ZM94.3608 86.846C99.2456 85.2178 103.422 82.4992 106.84 78.7093L102.384 74.6907C99.6694 77.7008 96.3787 79.8489 92.4634 81.154L94.3608 86.846ZM106.868 78.6777C111.579 73.3036 114.012 67.1455 114.012 60.3H108.012C108.012 65.5878 106.178 70.3631 102.356 74.7223L106.868 78.6777ZM114.012 60.3C114.012 55.2075 112.656 50.3837 109.996 45.8752L104.828 48.9248C106.968 52.5496 108.012 56.3259 108.012 60.3H114.012ZM109.978 45.8459C106.82 40.6311 102.549 36.7166 97.1931 34.1873L94.6311 39.6127C98.8748 41.6167 102.271 44.7022 104.846 48.9541L109.978 45.8459ZM97.2078 34.1942C92.0337 31.7165 86.3518 30.5 80.2121 30.5V36.5C85.539 36.5 90.3238 37.5502 94.6164 39.6058L97.2078 34.1942ZM80.2121 30.5C79.0215 30.5 77.7768 30.5744 76.4808 30.7183L77.1434 36.6816C78.2475 36.559 79.2694 36.5 80.2121 36.5V30.5ZM76.6359 30.7052C75.4441 30.7753 74.2526 30.8804 73.0616 31.0205L73.7626 36.9794C74.8383 36.8529 75.9135 36.758 76.9883 36.6948L76.6359 30.7052ZM73.0271 31.0248C66.9962 31.8053 60.443 33.8103 53.3888 36.9608L55.8355 42.4392C62.5146 39.4563 68.4947 37.6614 73.7971 36.9752L73.0271 31.0248ZM51.6138 39.8007L53.7138 102.301L59.7104 102.099L57.6104 39.5993L51.6138 39.8007ZM53.7121 102.2C53.7121 102.431 53.6749 102.462 53.7109 102.379C53.7301 102.335 53.7645 102.272 53.8193 102.204C53.8746 102.136 53.9354 102.082 53.9917 102.042L57.4325 106.958C59.1419 105.761 59.7121 103.909 59.7121 102.2H53.7121ZM53.719 102.258C53.6825 102.29 53.6584 102.307 53.6476 102.314C53.6373 102.32 53.6376 102.319 53.6479 102.315C53.6586 102.31 53.6728 102.306 53.6883 102.303C53.7036 102.3 53.7126 102.3 53.7121 102.3V108.3C55.2521 108.3 56.6123 107.714 57.7052 106.742L53.719 102.258Z" fill="white"/>
</g>

</g></symbol><symbol id="icon-close" viewBox="0 0 48 48"><path fill="none" stroke="#000" stroke-linecap="round" stroke-linejoin="round" stroke-miterlimit="10" stroke-width="3" d="M11.7,28.5L8,32.2c-0.8,0.8-0.8,2,0,2.8L13,40c0.8,0.8,2,0.8,2.8,0l8.2-8.2l8.2,8.2c0.8,0.8,2,0.8,2.8,0L40,35	c0.8-0.8,0.8-2,0-2.8L31.8,24l8.2-8.2c0.8-0.8,0.8-2,0-2.8l-2.6-2.6"/><path fill="none" stroke="#000" stroke-linecap="round" stroke-linejoin="round" stroke-miterlimit="10" stroke-width="3" d="M33.1,7.1L24,16.2L15.8,8c-0.8-0.8-2-0.8-2.8,0L8,13c-0.8,0.8-0.8,2,0,2.8l8.2,8.2"/></symbol><symbol id="icon-instagram" viewBox="0 0 48 48"><g style="enable-background:new 0 0 48 48;">
<style type="text/css">
	.st3{fill:none;stroke:#ff2e17;stroke-width:3;stroke-linecap:round;stroke-linejoin:round;stroke-miterlimit:10;}
	.st6{fill:none;stroke:#ff2e17;stroke-width:3;stroke-miterlimit:10;}
	.st7{fill:#ff2e17;}
</style>
<path class="st3" d="M41.5,21.1v-4.6c0-5.5-4.5-10-10-10h-15c-5.5,0-10,4.5-10,10v3"/>
<path class="st3" d="M6.5,25.6v5.9c0,5.5,4.5,10,10,10h15c5.5,0,10-4.5,10-10v-4.6"/>
<path class="st6" d="M24,15.5c-4.7,0-8.5,3.8-8.5,8.5s3.8,8.5,8.5,8.5s8.5-3.8,8.5-8.5S28.7,15.5,24,15.5z"/>
<path class="st7" d="M34,12c-1.1,0-2,0.9-2,2s0.9,2,2,2s2-0.9,2-2S35.1,12,34,12z"/>
</g></symbol><symbol id="icon-mail" viewBox="0 0 48 48"><path style="stroke:none" d="M 13.5 6 C 9.3754991 6 6 9.3754991 6 13.5 L 6 16.064453 A 1.50015 1.50015 0 1 0 9 16.064453 L 9 13.5 C 9 10.996501 10.996501 9 13.5 9 L 34.5 9 C 37.003499 9 39 10.996501 39 13.5 L 39 34.5 C 39 37.003499 37.003499 39 34.5 39 A 1.50015 1.50015 0 1 0 34.5 42 C 38.624501 42 42 38.624501 42 34.5 L 42 13.5 C 42 9.3754991 38.624501 6 34.5 6 L 13.5 6 z M 13.5 14.984375 C 12.136406 14.984375 11 16.120781 11 17.484375 L 11 30.515625 C 11 31.879219 12.136406 33.015625 13.5 33.015625 L 23.382812 33.015625 L 29.638672 33.015625 L 34.5 33.015625 C 35.863594 33.015625 37 31.879219 37 30.515625 L 37 17.484375 C 37 16.120781 35.863594 14.984375 34.5 14.984375 L 13.5 14.984375 z M 14 17.984375 L 31.662109 17.984375 L 24.886719 23.501953 A 1.50015 1.50015 0 0 0 24.886719 23.503906 C 24.359043 23.933718 23.624792 23.931773 23.097656 23.501953 L 18.716797 19.929688 A 1.50015 1.50015 0 1 0 16.820312 22.253906 L 18.267578 23.435547 L 14 27.705078 L 14 17.984375 z M 34 19.951172 L 34 27.707031 L 29.722656 23.435547 L 34 19.951172 z M 7.4765625 20.287109 A 1.50015 1.50015 0 0 0 6 21.808594 L 6 34.5 C 6 38.624501 9.3754991 42 13.5 42 L 27.53125 42 A 1.50015 1.50015 0 1 0 27.53125 39 L 13.5 39 C 10.996501 39 9 37.003499 9 34.5 L 9 21.808594 A 1.50015 1.50015 0 0 0 7.4765625 20.287109 z M 27.384766 25.339844 L 32.068359 30.015625 L 29.638672 30.015625 L 23.382812 30.015625 L 15.931641 30.015625 L 20.603516 25.341797 L 21.201172 25.828125 C 22.818036 27.146352 25.162925 27.146313 26.78125 25.828125 L 26.78125 25.830078 L 27.384766 25.339844 z"/></symbol><symbol id="icon-menu" viewBox="0 0 48 48"><path fill="none" stroke="#000" stroke-linecap="round" stroke-linejoin="round" stroke-miterlimit="10" stroke-width="3" d="M36.1,7.5h2.4c1.1,0,2,0.9,2,2v3c0,1.1-0.9,2-2,2H18"/><path fill="none" stroke="#000" stroke-linecap="round" stroke-linejoin="round" stroke-miterlimit="10" stroke-width="3" d="M13,14.5H9.5c-1.1,0-2-0.9-2-2v-3c0-1.1,0.9-2,2-2h21.3"/><path fill="none" stroke="#000" stroke-linecap="round" stroke-linejoin="round" stroke-miterlimit="10" stroke-width="3" d="M13.3,27.5H9.5c-1.1,0-2-0.9-2-2v-3c0-1.1,0.9-2,2-2h20"/><path fill="none" stroke="#000" stroke-linecap="round" stroke-linejoin="round" stroke-miterlimit="10" stroke-width="3" d="M35,20.5h3.5c1.1,0,2,0.9,2,2v3c0,1.1-0.9,2-2,2h-20"/><path fill="none" stroke="#000" stroke-linecap="round" stroke-linejoin="round" stroke-miterlimit="10" stroke-width="3" d="M13.5,40.5h-4c-1.1,0-2-0.9-2-2v-3c0-1.1,0.9-2,2-2h19.6"/><path fill="none" stroke="#000" stroke-linecap="round" stroke-linejoin="round" stroke-miterlimit="10" stroke-width="3" d="M34.2,33.5h4.3c1.1,0,2,0.9,2,2v3c0,1.1-0.9,2-2,2h-20"/></symbol><symbol id="icon-telegram" viewBox="0 0 48 48"><g style="enable-background:new 0 0 48 48;" fill="#ff2e17">
<g>
	<path style="stroke:none" d="M42.82,8.595c-0.612-0.72-1.74-1.579-3.645-1.579c-1.368,0-3.015,0.441-5.506,1.474L33.37,8.614
		c-3.805,1.58-7.48,3.118-10.949,4.582c-0.556,0.235-0.91,0.776-0.91,1.38v0c0,1.073,1.098,1.798,2.087,1.381
		c5.659-2.388,10.172-4.259,11.22-4.694c1.928-0.801,3.36-1.246,4.357-1.246c1.687,0,2.131,1.276,1.632,4.272
		c-0.309,1.852-0.932,6.02-1.646,10.573c-0.143,0.91,0.56,1.735,1.482,1.735h0.001c0.738,0,1.368-0.538,1.482-1.268
		c0.31-1.976,0.605-3.888,0.866-5.587c0.331-2.156,0.603-3.924,0.776-4.961C44.117,12.686,44.277,10.314,42.82,8.595z"/>
	<path style="stroke:none" d="M39.546,30.383c-0.732,0-1.358,0.528-1.479,1.25c-0.268,1.596-0.534,3.121-0.788,4.485
		c-0.502,2.702-1.407,3.867-2.724,3.867c-0.724,0-1.572-0.352-2.546-0.995c-1.32-0.872-7.984-5.279-9.431-6.314
		c-1.32-0.943-3.141-2.078-0.857-4.312c0.813-0.796,6.14-5.883,10.29-9.842c0.443-0.423,0.072-1.068-0.42-1.068
		c-0.112,0-0.231,0.034-0.347,0.111c-5.594,3.71-13.351,8.859-14.338,9.53c-0.987,0.67-1.949,1.1-3.231,1.1
		c-0.655,0-1.394-0.112-2.263-0.362c-1.943-0.558-3.84-1.223-4.579-1.477c-2.845-0.976-2.17-2.241,0.593-3.457
		c2.995-1.317,6.227-2.712,9.389-4.064c0.552-0.236,0.908-0.777,0.908-1.378v-0.001c0-1.076-1.105-1.801-2.095-1.378
		c-3.5,1.496-6.676,2.87-9.411,4.073c-1.074,0.473-4.341,1.91-4.214,4.916c0.054,1.297,0.768,3.065,3.856,4.124l0.228,0.078
		c0.862,0.297,2.657,0.916,4.497,1.445c1.12,0.322,2.132,0.478,3.091,0.478c1.664,0,2.953-0.475,3.961-1.028
		c-0.005,0.168-0.001,0.337,0.012,0.507c0.182,2.312,1.97,3.58,3.038,4.338l0.149,0.106c1.577,1.128,8.714,5.843,9.522,6.376
		c1.521,1.004,2.894,1.491,4.199,1.491c2.052,0,4.703-1.096,5.673-6.318c0.257-1.384,0.526-2.921,0.796-4.529
		c0.154-0.915-0.551-1.753-1.479-1.753H39.546z"/>
</g>
</g></symbol><symbol id="icon-vk" viewBox="0 0 48 48"><g style="enable-background:new 0 0 48 48;">
<path style="fill:none;stroke:#ff2e17;stroke-width:3;stroke-linecap:round;stroke-linejoin:round;" d="M42.656,16.549
	c0.298-0.63,0.543-1.212,0.734-1.728c0.416-1.125-0.394-2.322-1.594-2.322h-3.478c-1.153,0-1.828,0.414-2.15,1.073
	c-2.826,5.791-5.541,8.113-7.237,9.578c-0.95,0.82-2.431,0.141-2.431-1.108c0-2.408,0-5.397,0-7.602c0-1.068-0.865-1.928-1.932-1.93
	l-6.091-0.01c-0.799-0.001-1.256,0.91-0.778,1.549l1.174,1.571c0.397,0.525,0.612,1.163,0.612,1.819l0.025,6.737
	c0,1.187-1.438,1.767-2.292,0.935c-2.888-2.813-5.58-8.559-6.484-11.308c-0.263-0.801-1.009-1.335-1.852-1.337l-3.447-0.009
	c-1.294,0-2.239,1.226-1.887,2.46c0.735,2.578,1.634,5.12,2.729,7.516"/>
<path style="fill:none;stroke:#ff2e17;stroke-width:3;stroke-linecap:round;stroke-linejoin:round;" d="M9.439,28.066
	c3.52,5.086,8.35,8.759,14.912,9.426c1.163,0.118,2.166-0.828,2.166-1.997v-4.047c0-1.029,0.799-1.909,1.828-1.938
	c0.041-0.001,0.083-0.002,0.126-0.002c3.046,0,6.493,4.969,7.686,7.043c0.344,0.597,0.985,0.961,1.678,0.961h4.875
	c1.351,0.001,2.213-1.452,1.553-2.632c-1.684-3.012-5.582-6.531-7.357-8.101c-0.498-0.441-0.516-1.197-0.064-1.684
	c1.079-1.162,2.041-2.372,2.881-3.562"/>
</g></symbol><symbol id="icons-author" viewBox="0 0 48 48"><g style="enable-background:new 0 0 48 48;">
<path style="fill:none;stroke:#ffffff;stroke-width:3;stroke-linecap:round;stroke-linejoin:round;stroke-miterlimit:10;" d="
	M40.5,18.298V36.5c0,2.209-1.791,4-4,4h-25c-2.209,0-4-1.791-4-4v-1.032"/>
<path style="fill:none;stroke:#ffffff;stroke-width:3;stroke-linecap:round;stroke-linejoin:round;stroke-miterlimit:10;" d="
	M7.5,30.489V11.5c0-2.209,1.791-4,4-4h25c2.209,0,4,1.791,4,4v1.564"/>
<path style="fill:none;stroke:#ffffff;stroke-width:3;stroke-linecap:round;stroke-linejoin:round;stroke-miterlimit:10;" d="
	M16.438,14.5h6c0.552,0,1,0.448,1,1v17c0,0.552-0.448,1-1,1h-6c-0.552,0-1-0.448-1-1v-17C15.438,14.948,15.885,14.5,16.438,14.5z"/>
<path style="fill:none;stroke:#ffffff;stroke-width:3;stroke-linecap:round;stroke-linejoin:round;stroke-miterlimit:10;" d="
	M24.521,18.896c0-2.497,2.024-4.521,4.521-4.521s4.521,2.024,4.521,4.521s-2.024,4.521-4.521,4.521S24.521,21.393,24.521,18.896"/>
<circle style="fill:none;stroke:#ffffff;stroke-width:3;stroke-linecap:round;stroke-linejoin:round;stroke-miterlimit:10;" cx="29.042" cy="29.104" r="4.521"/>
</g></symbol></svg>